<?xml version="1.0" encoding="utf-8"?>
<!-- Generator: Adobe Illustrator 27.5.0, SVG Export Plug-In . SVG Version: 6.00 Build 0)  -->
<svg version="1.1" xmlns="http://www.w3.org/2000/svg" xmlns:xlink="http://www.w3.org/1999/xlink" x="0px" y="0px"
	 viewBox="0 0 750 500" style="enable-background:new 0 0 750 500;" xml:space="preserve">
<g id="Background_Complete">
	<g>
		<g>
			<path style="fill:#EBEBEB;" d="M711.879,176.613c-1.382-6.021-5.885-8.166-9.401-7.876c-3.822,0.316-6.618,3.355-6.618,3.355
				s-0.794-4.052-3.888-6.32c-2.846-2.086-7.806-2.61-12.131,1.8c-9.027,9.204,8.949,29.575,8.949,29.575
				S714.764,189.178,711.879,176.613z"/>
		</g>
	</g>
	<g>
		<g>
			<path style="fill:#EBEBEB;" d="M355.667,45.731c-4.413-8.066-11.731-9.319-16.65-7.481c-5.347,1.998-8.123,7.481-8.123,7.481
				s-2.776-5.484-8.123-7.481c-4.919-1.838-12.237-0.584-16.65,7.481c-9.211,16.833,24.773,38.748,24.773,38.748
				S364.878,62.564,355.667,45.731z"/>
		</g>
	</g>
	<g>
		<g>
			<path style="fill:#EBEBEB;" d="M403.395,24.12c-2.791-5.1-7.418-5.893-10.528-4.731c-3.381,1.263-5.137,4.731-5.137,4.731
				s-1.755-3.468-5.137-4.731c-3.111-1.162-7.738-0.369-10.528,4.731c-5.824,10.644,15.665,24.502,15.665,24.502
				S409.219,34.764,403.395,24.12z"/>
		</g>
	</g>
	<g>
		<g>
			<g>
				<g>
					<circle style="fill:#F5F5F5;" cx="504.585" cy="68.33" r="44.14"/>
				</g>
			</g>
			<g>
				<g>
					<path style="fill:#E0E0E0;" d="M520.639,67.484c-1.35,2.919-0.653,6.114,1.558,7.137c2.211,1.023,5.098-0.514,6.448-3.433
						c1.35-2.919,0.653-6.114-1.558-7.137C524.876,63.029,521.989,64.566,520.639,67.484z"/>
				</g>
			</g>
			<g>
				<g>
					<path style="fill:#E0E0E0;" d="M487.343,52.08c-1.35,2.919-0.653,6.114,1.558,7.137c2.211,1.023,5.098-0.514,6.448-3.433
						c1.35-2.919,0.653-6.114-1.558-7.137C491.581,47.624,488.694,49.161,487.343,52.08z"/>
				</g>
			</g>
		</g>
		<g>
			<g>
				<g>
					<path style="fill:#E0E0E0;" d="M490.308,62.939c-3.754,8.113-0.608,17.553,7.025,21.085c7.634,3.532,16.865-0.182,20.619-8.295
						L490.308,62.939z"/>
				</g>
			</g>
			<g>
				<g>
					<path style="fill:#EBEBEB;" d="M491.139,78.539c0,0,4.339-2.217,8.802-0.152c4.464,2.065,5.6,6.815,5.6,6.815
						S496.782,86.542,491.139,78.539z"/>
				</g>
			</g>
		</g>
	</g>
	<g>
		<g>
			<g>
				<g>
					<g>
						
							<rect x="189.658" y="49.155" transform="matrix(0.9552 -0.2959 0.2959 0.9552 -12.0865 61.6754)" style="fill:#E0E0E0;" width="16.082" height="43.221"/>
					</g>
				</g>
			</g>
			<g>
				<g>
					<g>
						
							<rect x="193.808" y="47.869" transform="matrix(0.9552 -0.2959 0.2959 0.9552 -11.5201 62.8466)" style="fill:#EBEBEB;" width="16.082" height="43.221"/>
					</g>
				</g>
			</g>
			<g>
				<g>
					<g>
						<path style="fill:#FFFFFF;" d="M195.481,59.783c0.593,1.914,2.626,2.985,4.54,2.392c1.914-0.593,2.986-2.626,2.392-4.54
							c-0.593-1.914-2.626-2.985-4.54-2.392C195.96,55.836,194.888,57.869,195.481,59.783z"/>
					</g>
				</g>
			</g>
			<g>
				<g>
					<g>
						<g>
							<path style="fill:#EBEBEB;" d="M185.573,58.704c0.11-0.141,1.538,0.791,3.189,2.081c1.652,1.29,2.901,2.451,2.791,2.591
								c-0.11,0.141-1.538-0.791-3.19-2.081C186.712,60.006,185.463,58.846,185.573,58.704z"/>
						</g>
					</g>
				</g>
			</g>
			<g>
				<g>
					<g>
						<g>
							<path style="fill:#EBEBEB;" d="M186.988,63.272c0.11-0.141,1.538,0.791,3.189,2.081c1.652,1.291,2.901,2.451,2.791,2.591
								c-0.11,0.141-1.538-0.791-3.19-2.081C188.127,64.573,186.878,63.413,186.988,63.272z"/>
						</g>
					</g>
				</g>
			</g>
			<g>
				<g>
					<g>
						<g>
							<path style="fill:#EBEBEB;" d="M188.403,67.84c0.11-0.141,1.538,0.791,3.189,2.081c1.652,1.29,2.901,2.451,2.791,2.592
								c-0.11,0.141-1.538-0.791-3.19-2.081C189.542,69.141,188.293,67.98,188.403,67.84z"/>
						</g>
					</g>
				</g>
			</g>
			<g>
				<g>
					<g>
						<g>
							<path style="fill:#EBEBEB;" d="M189.818,72.407c0.11-0.141,1.538,0.791,3.189,2.081c1.652,1.291,2.901,2.451,2.791,2.592
								c-0.11,0.141-1.538-0.791-3.19-2.081C190.957,73.708,189.708,72.548,189.818,72.407z"/>
						</g>
					</g>
				</g>
			</g>
			<g>
				<g>
					<g>
						<g>
							<path style="fill:#EBEBEB;" d="M191.233,76.974c0.11-0.141,1.538,0.791,3.189,2.081c1.652,1.291,2.901,2.451,2.791,2.592
								c-0.11,0.141-1.538-0.791-3.19-2.081C192.372,78.275,191.123,77.115,191.233,76.974z"/>
						</g>
					</g>
				</g>
			</g>
			<g>
				<g>
					<g>
						<g>
							<path style="fill:#EBEBEB;" d="M192.648,81.542c0.11-0.141,1.538,0.791,3.189,2.081c1.652,1.291,2.901,2.451,2.791,2.592
								c-0.11,0.141-1.538-0.791-3.19-2.081C193.787,82.843,192.538,81.683,192.648,81.542z"/>
						</g>
					</g>
				</g>
			</g>
			<g>
				<g>
					<g>
						<g>
							<path style="fill:#EBEBEB;" d="M194.063,86.109c0.11-0.141,1.538,0.791,3.19,2.081c1.652,1.291,2.901,2.451,2.791,2.592
								c-0.11,0.141-1.538-0.791-3.19-2.081C195.202,87.41,193.953,86.25,194.063,86.109z"/>
						</g>
					</g>
				</g>
			</g>
			<g>
				<g>
					<g>
						<g>
							<path style="fill:#EBEBEB;" d="M184.367,54.663c0.11-0.141,1.538,0.791,3.189,2.081c1.652,1.291,2.901,2.451,2.791,2.592
								c-0.11,0.141-1.538-0.791-3.19-2.081C185.506,55.965,184.257,54.804,184.367,54.663z"/>
						</g>
					</g>
				</g>
			</g>
			<g>
				<g>
					<g>
						<g>
							<path style="fill:#EBEBEB;" d="M185.256,51.996c0.11-0.141,0.992,0.364,1.969,1.128c0.978,0.764,1.681,1.497,1.571,1.638
								c-0.11,0.141-0.992-0.364-1.969-1.128C185.849,52.87,185.146,52.137,185.256,51.996z"/>
						</g>
					</g>
				</g>
			</g>
		</g>
		<g>
			<g>
				<g>
					<g>
						<path style="fill:#E0E0E0;" d="M187.65,92.952l-12.135-36.224c0,0-8.612,0.939-19.271-7.859
							c-7.054-5.823-7.686-14.111-9.6-17.034c-1.17-1.786-5.672,0.04-7.625,0.903c-1.851,0.818-4.693,2.869-5.085,6.319
							c-0.727,6.395,6.904,18.794,6.904,18.794s2.359,2.276-1.482,3.466l-13.698,4.244c-1.776,0.55-3.343,1.676-4.332,3.251
							c-0.868,1.383-1.391,3.239-0.505,5.463c2.026,5.085,5.492,6.566,5.832,7.664c0.34,1.097-0.574,3.485,1.501,6.3
							c2.075,2.815,2.675,2.328,3.143,3.837c0.467,1.509,1.932,5.264,3.614,7.298c1.682,2.034,3.12,2.792,3.12,2.792
							s0.98,5.201,3.382,7.521c3.15,3.042,12.949,2.673,16.15-0.193c1.498-1.341,9.049-5.81,12.592-7.96
							C173.697,99.383,183.395,92.316,187.65,92.952z"/>
					</g>
				</g>
			</g>
			<g>
				<g>
					<g>
						<path style="fill:#EBEBEB;" d="M192.684,91.847l-11.431-36.896c0,0-8.612,0.939-19.271-7.86
							c-7.054-5.822-11.042-11.055-12.956-13.978c-1.17-1.787-3.458-2.531-5.411-1.668c-1.851,0.818-3.927,2.287-4.319,5.736
							c-0.727,6.395,7.279,18.892,7.279,18.892s2.359,2.276-1.482,3.465l-13.698,4.244c-1.776,0.55-3.343,1.676-4.331,3.25
							c-0.868,1.383-1.391,3.239-0.505,5.463c2.026,5.085,5.492,6.566,5.832,7.664c0.34,1.097-0.574,3.485,1.501,6.3
							c2.075,2.815,2.675,2.328,3.143,3.837c0.467,1.509,1.932,5.264,3.614,7.299c1.683,2.034,3.12,2.792,3.12,2.792
							s1.118,5.065,3.382,7.521c2.264,2.455,8.492,2.18,10.412,1.585c1.92-0.595,14.786-7.588,18.329-9.737
							C179.435,97.605,188.428,91.211,192.684,91.847z"/>
					</g>
				</g>
			</g>
			<g>
				<g>
					<g>
						<g>
							<path style="fill:#EBEBEB;" d="M137.278,50.881c0.095-0.156,2.071,0.888,4.503,2.166c2.431,1.283,4.409,2.322,4.334,2.489
								c-0.071,0.16-2.184-0.621-4.636-1.916C139.026,52.33,137.186,51.029,137.278,50.881z"/>
						</g>
					</g>
				</g>
			</g>
			<g>
				<g>
					<g>
						<g>
							<path style="fill:#EBEBEB;" d="M135.012,46.176c0.098-0.152,1.885,0.784,4.178,1.765c2.301,0.981,4.124,1.932,4.041,2.104
								c-0.074,0.15-1.982-0.522-4.302-1.511C136.601,47.537,134.913,46.323,135.012,46.176z"/>
						</g>
					</g>
				</g>
			</g>
			<g>
				<g>
					<g>
						<g>
							<path style="fill:#EBEBEB;" d="M134.009,41.61c0.105-0.167,1.545,0.632,3.443,1.284c1.943,0.637,3.428,1.476,3.342,1.638
								c-0.082,0.156-1.614-0.39-3.559-1.028C135.254,42.821,133.915,41.74,134.009,41.61z"/>
						</g>
					</g>
				</g>
			</g>
			<g>
				<g>
					<g>
						<g>
							<path style="fill:#EBEBEB;" d="M134.367,37.432c0.071-0.164,1.245,0.184,2.622,0.778c1.378,0.594,2.437,1.208,2.366,1.373
								c-0.071,0.164-1.245-0.184-2.622-0.778C135.356,38.21,134.297,37.596,134.367,37.432z"/>
						</g>
					</g>
				</g>
			</g>
			<g>
				<g>
					<g>
						<g>
							<path style="fill:#EBEBEB;" d="M136.471,34.381c0.043-0.174,0.771-0.113,1.627,0.136c0.856,0.249,1.503,0.589,1.446,0.758
								c-0.057,0.169-0.786,0.109-1.627-0.136C137.076,34.894,136.429,34.555,136.471,34.381z"/>
						</g>
					</g>
				</g>
			</g>
			<g>
				<g>
					<g>
						<g>
							<path style="fill:#EBEBEB;" d="M140.362,57.052c0.071-0.164,1.31,0.214,2.767,0.844c1.458,0.631,2.582,1.275,2.511,1.439
								c-0.071,0.164-1.31-0.214-2.768-0.844C141.415,57.861,140.291,57.216,140.362,57.052z"/>
						</g>
					</g>
				</g>
			</g>
			<g>
				<g>
					<g>
						<g>
							<path style="fill:#EBEBEB;" d="M122.053,76.824c0.053-0.171,2.373,0.396,5.182,1.265c2.81,0.87,5.044,1.713,4.991,1.884
								c-0.053,0.171-2.373-0.395-5.182-1.265C124.234,77.838,122,76.994,122.053,76.824z"/>
						</g>
					</g>
				</g>
			</g>
			<g>
				<g>
					<g>
						<g>
							<path style="fill:#EBEBEB;" d="M120.331,70.502c0.053-0.171,1.454,0.114,3.128,0.636c1.675,0.522,2.989,1.083,2.936,1.254
								c-0.053,0.171-1.453-0.114-3.128-0.636C121.592,71.234,120.278,70.673,120.331,70.502z"/>
						</g>
					</g>
				</g>
			</g>
			<g>
				<g>
					<g>
						<g>
							<path style="fill:#EBEBEB;" d="M126.922,85.129c0.033-0.171,1.805,0.034,3.897,0.68c2.095,0.641,3.676,1.467,3.607,1.627
								c-0.071,0.169-1.737-0.378-3.797-1.008C128.572,85.792,126.886,85.308,126.922,85.129z"/>
						</g>
					</g>
				</g>
			</g>
			<g>
				<g>
					<g>
						<g>
							<path style="fill:#EBEBEB;" d="M131.124,91.617c0.06-0.169,1.751,0.282,3.776,1.005c2.026,0.724,3.619,1.447,3.559,1.615
								c-0.06,0.168-1.751-0.282-3.776-1.006C132.657,92.509,131.064,91.786,131.124,91.617z"/>
						</g>
					</g>
				</g>
			</g>
			<g>
				<g>
					<g>
						<g>
							<path style="fill:#EBEBEB;" d="M135.329,99.531c0.074-0.168,1.979,0.521,4.341,1.306c2.361,0.791,4.297,1.384,4.256,1.563
								c-0.038,0.17-2.067-0.146-4.461-0.948C137.07,100.656,135.257,99.69,135.329,99.531z"/>
						</g>
					</g>
				</g>
			</g>
			<g>
				<g>
					<g>
						<g>
							<path style="fill:#EBEBEB;" d="M139.279,106.061c0.072-0.16,2.292,0.633,5.057,1.545c2.759,0.931,5.011,1.63,4.972,1.801
								c-0.039,0.178-2.395-0.248-5.176-1.187C141.344,107.3,139.204,106.226,139.279,106.061z"/>
						</g>
					</g>
				</g>
			</g>
		</g>
	</g>
	<g>
		<g>
			<path style="fill:#F5F5F5;" d="M191.982,247.434H48.269c-4.035,0-7.306-3.271-7.306-7.306v-42.423
				c0-4.035,3.271-7.306,7.306-7.306h143.713c4.035,0,7.306,3.271,7.306,7.306v42.423
				C199.287,244.163,196.016,247.434,191.982,247.434z"/>
		</g>
		<g>
			<circle style="fill:#E0E0E0;" cx="67.965" cy="218.622" r="10.41"/>
		</g>
		<g>
			<rect x="85.611" y="213.783" style="fill:#E0E0E0;" width="82.342" height="4.839"/>
		</g>
		<g>
			<rect x="85.611" y="222.324" style="fill:#E0E0E0;" width="33.227" height="4.839"/>
		</g>
	</g>
	<g>
		<g>
			<path style="fill:#F5F5F5;" d="M697.546,318.72H553.833c-4.035,0-7.306-3.271-7.306-7.306V268.99
				c0-4.035,3.271-7.306,7.306-7.306h143.713c4.035,0,7.306,3.271,7.306,7.306v42.424
				C704.852,315.449,701.581,318.72,697.546,318.72z"/>
		</g>
		<g>
			
				<ellipse transform="matrix(0.5683 -0.8228 0.8228 0.5683 9.058 597.0808)" style="fill:#E0E0E0;" cx="573.53" cy="289.908" rx="10.41" ry="10.41"/>
		</g>
		<g>
			<rect x="591.175" y="285.069" style="fill:#E0E0E0;" width="82.342" height="4.839"/>
		</g>
		<g>
			<rect x="591.175" y="293.61" style="fill:#E0E0E0;" width="33.227" height="4.839"/>
		</g>
	</g>
	<g>
		<g>
			<g>
				<g>
					<g>
						
							<rect x="61.045" y="106.042" transform="matrix(0.519 -0.8548 0.8548 0.519 -59.3099 115.6788)" style="fill:#E0E0E0;" width="24.165" height="8.992"/>
					</g>
				</g>
			</g>
			<g>
				<g>
					<g>
						
							<rect x="58.969" y="104.781" transform="matrix(0.519 -0.8548 0.8548 0.519 -59.231 113.298)" style="fill:#EBEBEB;" width="24.165" height="8.991"/>
					</g>
				</g>
			</g>
			<g>
				<g>
					<g>
						<path style="fill:#FFFFFF;" d="M69.353,115.536c0.582-0.958,0.277-2.205-0.681-2.787c-0.958-0.582-2.206-0.277-2.787,0.681
							c-0.581,0.958-0.277,2.206,0.681,2.787C67.523,116.799,68.771,116.494,69.353,115.536z"/>
					</g>
				</g>
			</g>
			<g>
				<g>
					<g>
						<g>
							<path style="fill:#EBEBEB;" d="M72.574,120.084c-0.1,0.006-0.239-0.937-0.311-2.107c-0.072-1.17-0.05-2.123,0.05-2.129
								c0.1-0.006,0.239,0.937,0.311,2.107C72.696,119.124,72.674,120.077,72.574,120.084z"/>
						</g>
					</g>
				</g>
			</g>
			<g>
				<g>
					<g>
						<g>
							<path style="fill:#EBEBEB;" d="M73.961,117.798c-0.1,0.006-0.239-0.937-0.311-2.106c-0.072-1.17-0.049-2.123,0.05-2.129
								c0.1-0.006,0.239,0.937,0.311,2.106C74.083,116.839,74.061,117.792,73.961,117.798z"/>
						</g>
					</g>
				</g>
			</g>
			<g>
				<g>
					<g>
						<g>
							<path style="fill:#EBEBEB;" d="M75.349,115.513c-0.1,0.006-0.239-0.937-0.311-2.106c-0.072-1.17-0.049-2.123,0.05-2.129
								c0.1-0.006,0.239,0.937,0.311,2.107C75.471,114.554,75.448,115.507,75.349,115.513z"/>
						</g>
					</g>
				</g>
			</g>
			<g>
				<g>
					<g>
						<g>
							<path style="fill:#EBEBEB;" d="M76.736,113.228c-0.1,0.006-0.239-0.937-0.311-2.106c-0.072-1.17-0.049-2.123,0.05-2.129
								c0.1-0.006,0.239,0.937,0.311,2.107C76.858,112.269,76.836,113.222,76.736,113.228z"/>
						</g>
					</g>
				</g>
			</g>
			<g>
				<g>
					<g>
						<g>
							<path style="fill:#EBEBEB;" d="M78.124,110.943c-0.1,0.006-0.239-0.937-0.311-2.106c-0.072-1.17-0.049-2.123,0.05-2.129
								c0.1-0.006,0.239,0.937,0.311,2.107C78.246,109.983,78.223,110.937,78.124,110.943z"/>
						</g>
					</g>
				</g>
			</g>
			<g>
				<g>
					<g>
						<g>
							<path style="fill:#EBEBEB;" d="M79.511,108.658c-0.1,0.006-0.239-0.937-0.311-2.106c-0.072-1.17-0.049-2.123,0.05-2.129
								c0.1-0.006,0.239,0.937,0.311,2.107C79.633,107.698,79.611,108.651,79.511,108.658z"/>
						</g>
					</g>
				</g>
			</g>
			<g>
				<g>
					<g>
						<g>
							<path style="fill:#EBEBEB;" d="M80.898,106.372c-0.1,0.006-0.239-0.937-0.311-2.106c-0.072-1.17-0.049-2.123,0.05-2.129
								c0.1-0.006,0.239,0.937,0.311,2.107C81.021,105.413,80.998,106.366,80.898,106.372z"/>
						</g>
					</g>
				</g>
			</g>
			<g>
				<g>
					<g>
						<g>
							<path style="fill:#EBEBEB;" d="M71.329,122.086c-0.1,0.006-0.239-0.937-0.311-2.106c-0.072-1.17-0.049-2.123,0.05-2.129
								c0.1-0.006,0.239,0.937,0.311,2.107C71.451,121.127,71.429,122.08,71.329,122.086z"/>
						</g>
					</g>
				</g>
			</g>
			<g>
				<g>
					<g>
						<g>
							<path style="fill:#EBEBEB;" d="M69.883,122.702c-0.1,0.006-0.215-0.55-0.258-1.242c-0.043-0.692,0.004-1.258,0.104-1.265
								c0.1-0.006,0.215,0.55,0.258,1.242C70.029,122.13,69.983,122.696,69.883,122.702z"/>
						</g>
					</g>
				</g>
			</g>
		</g>
		<g>
			<g>
				<g>
					<g>
						<path style="fill:#E0E0E0;" d="M86.14,106.521l-10.665,18.505c0,0,3.585,3.257,3.853,10.98
							c0.177,5.111-3.058,8.447-3.572,10.332c-0.314,1.152,2.119,2.359,3.204,2.857c1.028,0.472,2.941,0.901,4.53-0.213
							c2.946-2.066,5.308-9.855,5.308-9.855s0.078-1.831,2-0.664l6.853,4.161c0.889,0.54,1.94,0.778,2.966,0.609
							c0.901-0.149,1.871-0.618,2.474-1.814c1.377-2.733,0.713-4.732,1.047-5.281c0.333-0.549,1.672-1.051,2.081-2.963
							c0.409-1.912-0.017-1.983,0.441-2.738c0.458-0.755,1.488-2.76,1.715-4.218c0.228-1.458,0.012-2.341,0.012-2.341
							s1.814-2.338,1.895-4.203c0.106-2.446-3.68-6.411-6.067-6.689c-1.116-0.13-5.786-1.634-7.999-2.321
							C94.003,109.978,87.451,108.537,86.14,106.521z"/>
					</g>
				</g>
			</g>
			<g>
				<g>
					<g>
						<path style="fill:#EBEBEB;" d="M83.812,104.823l-11.208,18.46c0,0,3.585,3.257,3.853,10.98
							c0.177,5.111-0.535,8.719-1.049,10.604c-0.314,1.152,0.222,2.386,1.307,2.883c1.028,0.472,2.413,0.796,4.002-0.318
							c2.946-2.066,5.21-10.049,5.21-10.049s0.078-1.831,2-0.664l6.853,4.161c0.888,0.54,1.94,0.778,2.966,0.609
							c0.901-0.149,1.871-0.618,2.474-1.814c1.378-2.733,0.713-4.733,1.047-5.281c0.333-0.549,1.671-1.051,2.081-2.963
							c0.409-1.912-0.017-1.983,0.441-2.738s1.488-2.76,1.716-4.218c0.228-1.458,0.012-2.341,0.012-2.341s1.706-2.345,1.895-4.203
							c0.189-1.858-2.235-4.362-3.196-4.946c-0.961-0.583-8.656-3.377-10.87-4.063C91.132,108.235,85.123,106.84,83.812,104.823z"/>
					</g>
				</g>
			</g>
			<g>
				<g>
					<g>
						<g>
							<path style="fill:#EBEBEB;" d="M87.198,143.199c-0.101,0.018-0.396-1.196-0.762-2.688c-0.364-1.493-0.662-2.706-0.565-2.737
								c0.093-0.03,0.549,1.144,0.916,2.651C87.157,141.93,87.295,143.182,87.198,143.199z"/>
						</g>
					</g>
				</g>
			</g>
			<g>
				<g>
					<g>
						<g>
							<path style="fill:#EBEBEB;" d="M86.069,145.892c-0.1,0.016-0.371-1.08-0.81-2.403c-0.442-1.326-0.72-2.443-0.617-2.472
								c0.09-0.025,0.516,1.023,0.962,2.361C86.049,144.722,86.167,145.878,86.069,145.892z"/>
						</g>
					</g>
				</g>
			</g>
			<g>
				<g>
					<g>
						<g>
							<path style="fill:#EBEBEB;" d="M84.529,148.004c-0.109,0.018-0.308-0.881-0.738-1.917c-0.453-1.049-0.653-1.982-0.553-2.006
								c0.096-0.023,0.435,0.82,0.889,1.871C84.575,147.034,84.619,147.995,84.529,148.004z"/>
						</g>
					</g>
				</g>
			</g>
			<g>
				<g>
					<g>
						<g>
							<path style="fill:#EBEBEB;" d="M82.647,149.402c-0.095,0.031-0.384-0.589-0.646-1.386c-0.262-0.797-0.397-1.468-0.302-1.499
								c0.095-0.031,0.384,0.589,0.646,1.386C82.607,148.7,82.742,149.371,82.647,149.402z"/>
						</g>
					</g>
				</g>
			</g>
			<g>
				<g>
					<g>
						<g>
							<path style="fill:#EBEBEB;" d="M80.591,149.652c-0.088,0.047-0.333-0.281-0.546-0.731c-0.213-0.451-0.311-0.847-0.218-0.886
								c0.092-0.039,0.337,0.289,0.546,0.731C80.581,149.209,80.679,149.605,80.591,149.652z"/>
						</g>
					</g>
				</g>
			</g>
			<g>
				<g>
					<g>
						<g>
							<path style="fill:#EBEBEB;" d="M88.639,139.621c-0.095,0.031-0.396-0.628-0.672-1.471c-0.276-0.844-0.423-1.553-0.328-1.584
								c0.095-0.031,0.396,0.627,0.672,1.471C88.587,138.88,88.734,139.59,88.639,139.621z"/>
						</g>
					</g>
				</g>
			</g>
			<g>
				<g>
					<g>
						<g>
							<path style="fill:#EBEBEB;" d="M103.701,139.957c-0.091,0.041-0.714-1.14-1.391-2.638c-0.677-1.498-1.152-2.746-1.061-2.787
								c0.091-0.041,0.714,1.14,1.391,2.638C103.317,138.668,103.792,139.916,103.701,139.957z"/>
						</g>
					</g>
				</g>
			</g>
			<g>
				<g>
					<g>
						<g>
							<path style="fill:#EBEBEB;" d="M101.693,143.021c-0.091,0.041-0.491-0.651-0.893-1.545c-0.402-0.895-0.654-1.653-0.563-1.694
								c0.091-0.041,0.491,0.651,0.893,1.545C101.532,142.221,101.784,142.98,101.693,143.021z"/>
						</g>
					</g>
				</g>
			</g>
			<g>
				<g>
					<g>
						<g>
							<path style="fill:#EBEBEB;" d="M105.373,134.841c-0.084,0.05-0.655-0.768-1.16-1.883c-0.508-1.115-0.748-2.082-0.656-2.113
								c0.097-0.033,0.486,0.867,0.985,1.963C105.039,133.904,105.461,134.789,105.373,134.841z"/>
						</g>
					</g>
				</g>
			</g>
			<g>
				<g>
					<g>
						<g>
							<path style="fill:#EBEBEB;" d="M106.531,130.677c-0.093,0.037-0.531-0.837-0.979-1.953c-0.448-1.116-0.735-2.051-0.643-2.088
								c0.093-0.037,0.531,0.837,0.979,1.954C106.336,129.705,106.624,130.64,106.531,130.677z"/>
						</g>
					</g>
				</g>
			</g>
			<g>
				<g>
					<g>
						<g>
							<path style="fill:#EBEBEB;" d="M108.286,125.983c-0.098,0.031-0.515-1.022-1.062-2.301c-0.544-1.281-1.014-2.312-0.923-2.361
								c0.085-0.047,0.705,0.919,1.256,2.219C108.111,124.838,108.379,125.955,108.286,125.983z"/>
						</g>
					</g>
				</g>
			</g>
			<g>
				<g>
					<g>
						<g>
							<path style="fill:#EBEBEB;" d="M109.555,121.91c-0.094,0.029-0.585-1.194-1.227-2.689c-0.633-1.5-1.175-2.702-1.089-2.749
								c0.089-0.049,0.784,1.094,1.422,2.607C109.309,120.586,109.652,121.88,109.555,121.91z"/>
						</g>
					</g>
				</g>
			</g>
		</g>
	</g>
	<g>
		<g>
			<path style="fill:#E0E0E0;" d="M687.084,62.952c-1.846-3.374-4.907-3.898-6.965-3.129c-2.237,0.836-3.398,3.129-3.398,3.129
				s-1.161-2.294-3.398-3.129c-2.058-0.769-5.119-0.245-6.965,3.129c-3.853,7.041,10.363,16.209,10.363,16.209
				S690.937,69.993,687.084,62.952z"/>
		</g>
	</g>
	<g>
		<path style="fill:#E0E0E0;" d="M77.11,378.846l6.669,6.997c0.75,0.787,1.864,1.159,2.978,0.994l9.907-1.463
			c2.806-0.414,4.809,2.437,3.389,4.825l-5.013,8.431c-0.564,0.948-0.613,2.091-0.132,3.057l4.276,8.583
			c1.211,2.431-1.035,5.212-3.802,4.706l-9.767-1.786c-1.098-0.201-2.243,0.134-3.06,0.895l-7.264,6.768
			c-2.058,1.917-5.449,0.785-5.739-1.916l-1.023-9.535c-0.115-1.072-0.773-2.009-1.759-2.504l-8.766-4.401
			c-2.483-1.246-2.332-4.727,0.255-5.89l9.134-4.106c1.027-0.462,1.765-1.375,1.973-2.442l1.847-9.488
			C71.737,377.883,75.221,376.864,77.11,378.846z"/>
	</g>
	<g>
		<g>
			<g>
				<path style="fill:#E0E0E0;" d="M664.012,374.984l12.158,17.384c1.332,1.905,4.168,1.857,5.435-0.09l11.768-18.081
					L664.012,374.984z"/>
			</g>
		</g>
		<g>
			<g>
				<path style="fill:#E0E0E0;" d="M692.843,384.603h-30.125c-6.386,0-11.564-5.177-11.564-11.564V357.44
					c0-6.386,5.177-11.564,11.563-11.564h30.125c6.386,0,11.564,5.177,11.564,11.564v15.6
					C704.407,379.426,699.229,384.603,692.843,384.603z"/>
			</g>
		</g>
		<g>
			<g>
				<path style="fill:#FFFFFF;" d="M688.208,361.68c-1.707-3.12-4.537-3.605-6.44-2.894c-2.068,0.773-3.142,2.894-3.142,2.894
					s-1.074-2.121-3.142-2.894c-1.903-0.711-4.733-0.226-6.44,2.894c-3.563,6.511,9.582,14.987,9.582,14.987
					S691.771,368.191,688.208,361.68z"/>
			</g>
		</g>
	</g>
</g>
<g id="Background_Simple" style="display:none;">
	<g style="display:inline;">
		<path style="fill:#F5F5F5;" d="M163.086,41.278l1.798,1.216c15.156,10.252,23.729,27.859,21.694,45.876
			c-0.261,2.316-0.69,4.614-1.291,6.872c-4.328,16.259-17.46,29.944-33.668,35.086c-9.532,3.024-20.356,3.466-28.112,9.714
			c-10.094,8.131-11.118,22.731-11.352,35.6c-0.233,12.869-1.297,27.477-11.426,35.564c-6.344,5.065-15.073,6.344-23.194,5.509
			c-21.498-2.209-40.031-18.18-48.668-37.754s-8.386-42.106-3.14-62.804c7.348-28.995,24.935-56.045,50.802-71.55
			C102.396,29.104,136.72,26.55,163.086,41.278z"/>
	</g>
	<g style="display:inline;">
		<path style="fill:#F5F5F5;" d="M565.639,42.868l-1.437,1.626c-12.117,13.711-16.024,32.901-9.556,49.84
			c0.831,2.177,1.82,4.295,2.966,6.332c8.25,14.664,24.382,24.638,41.36,25.571c9.985,0.549,20.577-1.725,29.647,2.389
			c11.804,5.354,16.441,19.236,19.879,31.64c3.438,12.404,8.114,26.283,19.942,31.586c7.408,3.321,16.18,2.38,23.835-0.455
			c20.266-7.505,34.225-27.597,37.703-48.707c3.478-21.111-2.391-42.867-12.636-61.599c-14.354-26.242-38.136-48.047-67.054-56.604
			C621.369,15.93,587.494,22.026,565.639,42.868z"/>
	</g>
	<circle style="display:inline;fill:#F5F5F5;" cx="676.731" cy="308.374" r="35.463"/>
	
		<ellipse transform="matrix(0.4927 -0.8702 0.8702 0.4927 -310.4605 270.418)" style="display:inline;fill:#F5F5F5;" cx="76.701" cy="401.483" rx="29.77" ry="29.77"/>
	<circle style="display:inline;fill:#F5F5F5;" cx="289.12" cy="77.123" r="34.699"/>
</g>
<g id="Floor">
	<g>
		<g>
			<path style="fill:#263238;" d="M683.601,464.259c0,0.144-143.324,0.26-320.082,0.26c-176.82,0-320.113-0.116-320.113-0.26
				s143.293-0.26,320.113-0.26C540.277,463.999,683.601,464.116,683.601,464.259z"/>
		</g>
	</g>
</g>
<g id="Device">
	<g>
		<g>
			<g>
				<g>
					<g>
						<g>
							<g>
								<g>
									<g>
										<g>
											<g>
												<g>
													<g>
														<path style="fill:#455A64;" d="M546.655,462.574H161.458c-12.732,0-23.054-10.742-23.054-23.992v-275.12
															c0-9.666,7.529-17.501,16.817-17.501h398.596c8.777,0,15.892,7.405,15.892,16.538v276.083
															C569.709,451.832,559.388,462.574,546.655,462.574z"/>
													</g>
												</g>
											</g>
										</g>
									</g>
								</g>
							</g>
						</g>
						<g>
							<g>
								<g>
									<g>
										<g>
											<g>
												<g>
													<g>
														<path style="fill:#455A64;" d="M569.258,467.394H142.655c-12.309,0-22.287-10.385-22.287-23.194v-3.615
															c0-0.494,0.385-0.894,0.859-0.894h465.568c0.474,0,0.859,0.4,0.859,0.894v7.665
															C587.654,458.823,579.418,467.394,569.258,467.394z"/>
													</g>
												</g>
											</g>
											<g>
												<g>
													<g>
														<g>
															<path style="fill:#263238;" d="M569.258,467.394c0,0,0.212-0.02,0.63-0.046c0.416-0.05,1.047-0.007,1.861-0.176
																c1.626-0.216,4.095-0.782,6.864-2.518c1.398-0.83,2.819-2.02,4.161-3.541c1.337-1.522,2.575-3.422,3.458-5.694
																c0.896-2.266,1.373-4.899,1.34-7.723c-0.002-1.415-0.004-2.875-0.005-4.381c-0.001-0.753-0.002-1.517-0.003-2.293
																c0.004-0.393,0.035-0.779-0.246-1.022c-0.247-0.273-0.632-0.209-1.02-0.214
																c-24.537,0.019-60.035,0.046-103.898,0.079c-87.734,0.019-208.925,0.044-342.777,0.073c-4.184,0-8.356,0-12.515,0
																l-3.117,0h-1.557h-0.778h-0.389c-0.117-0.001-0.195,0.013-0.285,0.052c-0.171,0.077-0.309,0.238-0.355,0.427
																c-0.041,0.155-0.014,0.491-0.022,0.742v1.616c-0.02,1.082,0.026,2.146,0.087,3.207
																c0.176,2.114,0.564,4.222,1.311,6.197c0.308,1.014,0.81,1.941,1.237,2.901c0.538,0.896,1.001,1.846,1.646,2.665
																c2.378,3.431,5.716,6.081,9.431,7.691c1.871,0.784,3.836,1.296,5.829,1.551c1.992,0.2,4.022,0.16,6.046,0.159
																c4.044,0,8.074,0.001,12.086,0.001c8.025,0.001,15.986,0.001,23.877,0.002c31.563,0.005,62.009,0.01,91.011,0.014
																c58.004,0.02,110.238,0.038,154.104,0.053c43.863,0.033,79.358,0.06,103.892,0.079
																c12.262,0.02,21.784,0.036,28.246,0.047c3.226,0.011,5.686,0.019,7.346,0.025
																C568.41,467.377,569.258,467.394,569.258,467.394s-0.848,0.017-2.503,0.025c-1.659,0.006-4.12,0.014-7.346,0.025
																c-6.461,0.011-15.984,0.026-28.246,0.047c-24.534,0.019-60.029,0.046-103.892,0.079
																c-43.866,0.015-96.1,0.033-154.104,0.053c-29.003,0.004-59.448,0.009-91.011,0.014
																c-7.891,0.001-15.852,0.001-23.877,0.002c-4.013,0-8.042,0.001-12.086,0.001c-2.019,0-4.048,0.043-6.099-0.162
																c-2.037-0.261-4.044-0.783-5.955-1.584c-3.797-1.644-7.205-4.351-9.635-7.855c-0.658-0.838-1.133-1.807-1.681-2.723
																c-0.437-0.98-0.949-1.928-1.264-2.964c-0.763-2.018-1.161-4.172-1.34-6.331c-0.062-1.087-0.108-2.172-0.088-3.245
																v-1.616c0.015-0.285-0.034-0.497,0.038-0.869c0.082-0.336,0.323-0.619,0.627-0.755
																c0.147-0.069,0.331-0.095,0.473-0.092h0.389h0.778l1.557,0h3.117c4.159,0,8.331,0,12.515,0
																c133.852,0.028,255.043,0.054,342.777,0.073c43.863,0.033,79.361,0.06,103.898,0.079l0.581,0.005
																c0.21,0.02,0.413,0.112,0.564,0.263c0.153,0.148,0.257,0.349,0.289,0.563c0.026,0.224,0.007,0.398,0.013,0.598
																c-0.001,0.776-0.002,1.54-0.003,2.293c-0.002,1.506-0.004,2.966-0.005,4.381c0.026,2.839-0.463,5.5-1.373,7.778
																c-0.897,2.286-2.151,4.195-3.502,5.722c-1.356,1.525-2.79,2.715-4.2,3.543c-2.791,1.731-5.274,2.283-6.906,2.483
																c-0.817,0.16-1.45,0.109-1.867,0.151C569.47,467.391,569.258,467.394,569.258,467.394z"/>
														</g>
													</g>
												</g>
											</g>
										</g>
									</g>
								</g>
							</g>
						</g>
						<g>
							<g>
								<g>
									<g>
										<g>
											<g>
												<g>
													<polygon style="fill:#263238;" points="311.539,439.157 317.337,449.396 398.931,449.396 404.316,439.157 
																											"/>
												</g>
											</g>
										</g>
									</g>
								</g>
							</g>
						</g>
					</g>
				</g>
			</g>
		</g>
		<g>
			<g>
				<g>
					<rect x="159.554" y="170.039" style="fill:#FFFFFF;" width="395.386" height="259.35"/>
				</g>
			</g>
			<g>
				<g>
					<rect x="159.554" y="170.039" style="fill:#E0E0E0;" width="395.386" height="26"/>
				</g>
			</g>
			<g>
				<g>
					<path style="fill:#FFFFFF;" d="M175.748,181.962c0,2.184-1.706,3.955-3.81,3.955c-2.104,0-3.81-1.771-3.81-3.955
						c0-2.185,1.706-3.956,3.81-3.956C174.042,178.007,175.748,179.778,175.748,181.962z"/>
				</g>
			</g>
			<g>
				<g>
					<path style="fill:#FFFFFF;" d="M186.875,181.962c0,2.184-1.706,3.955-3.81,3.955c-2.105,0-3.81-1.771-3.81-3.955
						c0-2.185,1.706-3.956,3.81-3.956C185.169,178.007,186.875,179.778,186.875,181.962z"/>
				</g>
			</g>
			<g>
				<g>
					<path style="fill:#FFFFFF;" d="M198.001,181.962c0,2.184-1.706,3.955-3.81,3.955c-2.104,0-3.811-1.771-3.811-3.955
						c0-2.185,1.706-3.956,3.811-3.956C196.295,178.007,198.001,179.778,198.001,181.962z"/>
				</g>
			</g>
		</g>
		<g>
			
				<ellipse transform="matrix(0.7071 -0.7071 0.7071 0.7071 -121.8016 229.6618)" style="fill:#FF725E;" cx="216.326" cy="261.858" rx="25.945" ry="25.945"/>
		</g>
		<g>
			<path style="fill:#E0E0E0;" d="M273.702,331.161h-85.619c-2.581,0-4.673-2.092-4.673-4.673v-20.262
				c0-2.581,2.092-4.673,4.673-4.673h85.619c2.581,0,4.673,2.092,4.673,4.673v20.262
				C278.375,329.069,276.283,331.161,273.702,331.161z"/>
		</g>
		<g>
			<path style="fill:#E0E0E0;" d="M273.702,370.361h-85.619c-2.581,0-4.673-2.092-4.673-4.673v-20.262
				c0-2.581,2.092-4.673,4.673-4.673h85.619c2.581,0,4.673,2.092,4.673,4.673v20.262
				C278.375,368.268,276.283,370.361,273.702,370.361z"/>
		</g>
		<g>
			<path style="fill:#E0E0E0;" d="M273.702,408.671h-85.619c-2.581,0-4.673-2.092-4.673-4.673v-20.262
				c0-2.581,2.092-4.673,4.673-4.673h85.619c2.581,0,4.673,2.092,4.673,4.673v20.262
				C278.375,406.578,276.283,408.671,273.702,408.671z"/>
		</g>
		<g>
			<rect x="289.12" y="234.438" style="fill:#E0E0E0;" width="235.342" height="194.95"/>
		</g>
	</g>
</g>
<g id="Shadow_2">
	<g style="opacity:0.3;">
		<path d="M496.565,425.331H222.137c-4.429,0-8.02-3.59-8.02-8.02V153.993c0-4.429,3.59-8.02,8.02-8.02h274.428
			c4.429,0,8.02,3.59,8.02,8.02v263.318C504.585,421.74,500.994,425.331,496.565,425.331z"/>
	</g>
</g>
<g id="Screen">
	<g>
		<g>
			<g>
				<g>
					<g>
						<path style="fill:#FFFFFF;" d="M492.03,84.956v323.509c0,4.207-3.41,7.617-7.617,7.617H235.008
							c-4.207,0-7.617-3.41-7.617-7.617V84.956c0-4.207,3.41-7.617,7.617-7.617h249.405C488.62,77.339,492.03,80.749,492.03,84.956z
							"/>
					</g>
					<g>
						<path style="fill:#FF725E;" d="M492.03,107.352H227.391V84.811c0-4.127,3.345-7.472,7.472-7.472h250.208
							c3.844,0,6.959,3.116,6.959,6.959V107.352z"/>
					</g>
					<g>
						<g>
							<path style="fill:#263238;" d="M492.03,84.956c0,0-0.022-0.261-0.053-0.774c-0.08-0.506-0.179-1.279-0.587-2.214
								c-0.407-0.923-1.108-2.023-2.29-2.957c-1.168-0.933-2.866-1.643-4.853-1.619c-7.955,0.011-19.68,0.028-34.778,0.049
								c-30.207,0.02-73.909,0.048-127.909,0.083c-13.501,0.005-27.645,0.011-42.383,0.017c-7.369,0.002-14.886,0.005-22.546,0.008
								c-3.83,0.001-7.695,0.002-11.595,0.004c-1.95,0.001-3.909,0.001-5.876,0.002c-0.984,0-1.97,0.001-2.958,0.001
								c-0.996,0.001-1.966-0.029-2.904,0.207c-1.879,0.436-3.568,1.657-4.583,3.315c-0.511,0.826-0.856,1.756-1.007,2.72
								c-0.15,0.954-0.084,1.972-0.099,2.981c0.001,4.036,0.002,8.105,0.003,12.207c0.002,8.203,0.004,16.536,0.006,24.993
								c0.003,16.913,0.007,34.319,0.011,52.169c0.006,71.4,0.013,149.897,0.02,232.29c0.006,1.246,0.318,2.484,0.913,3.576
								c0.615,1.074,1.47,2.03,2.532,2.675c1.048,0.662,2.263,1.059,3.501,1.113c1.252,0.042,2.555,0.012,3.828,0.021
								c5.12,0,10.224,0,15.311,0c10.174,0,20.281,0.001,30.315,0.001c20.067,0.001,39.84,0.003,59.269,0.004
								c38.858,0.005,76.339,0.01,112.044,0.015c8.926,0.002,17.741,0.003,26.44,0.005c1.078-0.014,2.193,0.032,3.236-0.031
								c1.047-0.084,2.074-0.394,2.983-0.914c1.828-1.025,3.177-2.848,3.608-4.886c0.239-1.008,0.149-2.075,0.167-3.151
								c0-1.069,0-2.135,0.001-3.2c0-2.13,0.001-4.252,0.001-6.366c0.004-16.914,0.009-33.335,0.013-49.211
								c0.011-31.753,0.022-61.33,0.032-88.331c0.035-54,0.063-97.699,0.083-127.902c0.021-15.097,0.038-26.82,0.049-34.774
								c0.011-3.972,0.02-7.002,0.026-9.043C492.012,85.999,492.03,84.956,492.03,84.956s0.018,1.044,0.027,3.081
								c0.006,2.042,0.014,5.071,0.026,9.043c0.011,7.954,0.028,19.677,0.049,34.774c0.02,30.203,0.048,73.902,0.083,127.902
								c0.01,27.002,0.02,56.579,0.032,88.331c0.004,15.876,0.009,32.297,0.013,49.211c0,2.114,0.001,4.236,0.001,6.366
								c0,1.065,0.001,2.132,0.001,3.2c-0.019,1.054,0.077,2.153-0.176,3.248c-0.458,2.168-1.89,4.105-3.833,5.196
								c-0.967,0.553-2.06,0.883-3.173,0.974c-1.121,0.067-2.179,0.019-3.275,0.034c-8.698,0.002-17.513,0.003-26.44,0.005
								c-35.705,0.005-73.187,0.01-112.044,0.015c-19.429,0.001-39.202,0.003-59.269,0.004c-10.034,0-20.141,0.001-30.315,0.001
								c-5.087,0-10.191,0-15.311,0c-1.286-0.01-2.547,0.022-3.857-0.022c-1.326-0.059-2.628-0.483-3.75-1.193
								c-1.137-0.692-2.053-1.712-2.71-2.864c-0.637-1.167-0.972-2.498-0.977-3.827c0.007-82.393,0.014-160.89,0.021-232.29
								c0.004-17.85,0.007-35.256,0.011-52.169c0.002-8.456,0.004-16.789,0.006-24.993c0.001-4.102,0.002-8.171,0.003-12.207
								c0.017-1.006-0.054-2.014,0.106-3.049c0.16-1.021,0.527-2.006,1.068-2.881c1.076-1.756,2.864-3.046,4.854-3.507
								c0.997-0.25,2.029-0.216,3.003-0.217c0.988,0,1.974,0.001,2.958,0.001c1.967,0.001,3.926,0.001,5.876,0.002
								c3.9,0.001,7.765,0.002,11.595,0.004c7.66,0.003,15.177,0.005,22.546,0.008c14.738,0.006,28.882,0.011,42.383,0.017
								c54,0.035,97.702,0.063,127.909,0.083c15.099,0.021,26.823,0.038,34.778,0.049c2.01-0.017,3.728,0.712,4.902,1.661
								c1.189,0.951,1.888,2.065,2.289,2.998c0.402,0.945,0.493,1.724,0.565,2.232C492.026,84.695,492.03,84.956,492.03,84.956z"/>
						</g>
					</g>
				</g>
			</g>
			<g>
				<path style="fill:#263238;" d="M321.624,132.34l1.334-3.021c1.159,0.685,2.705,1.124,4.057,1.124
					c1.177,0,1.598-0.246,1.598-0.667c0-1.545-6.797-0.298-6.797-4.882c0-2.283,1.915-4.145,5.726-4.145
					c1.651,0,3.354,0.352,4.637,1.071l-1.247,3.003c-1.212-0.615-2.353-0.913-3.425-0.913c-1.212,0-1.598,0.351-1.598,0.772
					c0,1.476,6.797,0.246,6.797,4.777c0,2.248-1.915,4.145-5.726,4.145C324.926,133.604,322.853,133.095,321.624,132.34z"/>
				<path style="fill:#263238;" d="M333.833,127.791v-6.762h4.145v6.639c0,1.879,0.72,2.581,1.879,2.581
					c1.159,0,1.879-0.702,1.879-2.581v-6.639h4.075v6.762c0,3.688-2.213,5.813-5.989,5.813
					C336.046,133.604,333.833,131.479,333.833,127.791z"/>
				<path style="fill:#263238;" d="M352.981,130.232h-1.124v3.091h-4.145v-12.294h5.919c3.425,0,5.602,1.792,5.602,4.637
					c0,1.773-0.843,3.108-2.318,3.864l2.582,3.794h-4.426L352.981,130.232z M353.367,124.225h-1.51v2.88h1.51
					c1.142,0,1.686-0.544,1.686-1.44C355.053,124.77,354.509,124.225,353.367,124.225z"/>
				<path style="fill:#263238;" d="M373.937,121.029l-5.198,12.294h-4.075l-5.198-12.294h4.461l2.933,7.183l3.003-7.183H373.937z"/>
				<path style="fill:#263238;" d="M384.567,130.197v3.126h-10.222v-12.294h9.994v3.126h-5.919v1.44h5.199v2.985h-5.199v1.616
					H384.567z"/>
				<path style="fill:#263238;" d="M393.387,128.862v4.461h-4.146v-4.514l-4.637-7.78h4.374l2.511,4.25l2.529-4.25h4.004
					L393.387,128.862z"/>
			</g>
			<g>
				<g>
					<g>
						<path style="fill:#FF725E;" d="M300.675,235.613h-24.757c-2.133,0-3.863-1.729-3.863-3.863v-24.757
							c0-2.133,1.729-3.863,3.863-3.863h24.757c2.133,0,3.863,1.729,3.863,3.863v24.757
							C304.538,233.884,302.809,235.613,300.675,235.613z"/>
					</g>
				</g>
				<g>
					<g>
						<g>
							<polygon style="fill:#FFFFFF;" points="287.831,227.11 278.731,220.078 281.185,216.903 287.287,221.618 295.965,211.634 
								298.993,214.266 							"/>
						</g>
					</g>
				</g>
			</g>
			<g>
				<rect x="321.865" y="164.865" style="fill:#E0E0E0;" width="115.728" height="7.738"/>
			</g>
			<g>
				<g>
					<g>
						<path style="fill:#E0E0E0;" d="M300.675,184.975h-24.757c-2.133,0-3.863-1.729-3.863-3.863v-24.757
							c0-2.133,1.729-3.863,3.863-3.863h24.757c2.133,0,3.863,1.729,3.863,3.863v24.757
							C304.538,183.246,302.809,184.975,300.675,184.975z"/>
					</g>
				</g>
			</g>
			<g>
				<rect x="321.865" y="217.233" style="fill:#FF725E;" width="92.649" height="7.738"/>
			</g>
			<g>
				<g>
					<g>
						<path style="fill:#E0E0E0;" d="M300.675,288.489h-24.757c-2.133,0-3.863-1.729-3.863-3.863v-24.757
							c0-2.133,1.729-3.863,3.863-3.863h24.757c2.133,0,3.863,1.729,3.863,3.863v24.757
							C304.538,286.759,302.809,288.489,300.675,288.489z"/>
					</g>
				</g>
			</g>
			<g>
				<rect x="321.865" y="269.601" style="fill:#E0E0E0;" width="102.468" height="7.738"/>
			</g>
			<g>
				<g>
					<g>
						<path style="fill:#E0E0E0;" d="M300.675,340.857h-24.757c-2.133,0-3.863-1.729-3.863-3.863v-24.757
							c0-2.133,1.729-3.863,3.863-3.863h24.757c2.133,0,3.863,1.729,3.863,3.863v24.757
							C304.538,339.127,302.809,340.857,300.675,340.857z"/>
					</g>
				</g>
			</g>
			<g>
				<g>
					<g>
						<path style="fill:#E0E0E0;" d="M300.675,390.339h-24.757c-2.133,0-3.863-1.729-3.863-3.863v-24.757
							c0-2.133,1.729-3.863,3.863-3.863h24.757c2.133,0,3.863,1.729,3.863,3.863v24.757
							C304.538,388.609,302.809,390.339,300.675,390.339z"/>
					</g>
				</g>
			</g>
			<g>
				<rect x="321.865" y="321.969" style="fill:#E0E0E0;" width="62.43" height="7.738"/>
			</g>
			<g>
				<rect x="321.865" y="370.895" style="fill:#E0E0E0;" width="115.728" height="7.738"/>
			</g>
		</g>
		<g>
			<path style="fill:#FFFFFF;" d="M247.428,91.542c0,2.63-2.132,4.762-4.762,4.762s-4.762-2.132-4.762-4.762
				c0-2.63,2.132-4.762,4.762-4.762S247.428,88.912,247.428,91.542z"/>
		</g>
		<g>
			<path style="fill:#FFFFFF;" d="M260.285,91.542c0,2.63-2.132,4.762-4.762,4.762s-4.762-2.132-4.762-4.762
				c0-2.63,2.132-4.762,4.762-4.762S260.285,88.912,260.285,91.542z"/>
		</g>
		<g>
			<path style="fill:#FFFFFF;" d="M273.142,91.542c0,2.63-2.132,4.762-4.762,4.762c-2.63,0-4.762-2.132-4.762-4.762
				c0-2.63,2.132-4.762,4.762-4.762C271.01,86.78,273.142,88.912,273.142,91.542z"/>
		</g>
	</g>
</g>
<g id="Shadow_1">
	<g style="opacity:0.3;">
		<g>
			<path d="M545.073,339.496H374.919c-2.129,0-3.855-1.726-3.855-3.855v-47.032c0-2.129,1.726-3.855,3.855-3.855h170.154
				c2.129,0,3.855,1.726,3.855,3.855v47.032C548.928,337.77,547.202,339.496,545.073,339.496z"/>
		</g>
	</g>
</g>
<g id="Stars">
	<g>
		<g>
			<g>
				<path style="fill:#FFFFFF;" d="M538.37,330.015H368.216c-2.129,0-3.855-1.726-3.855-3.855v-47.032
					c0-2.129,1.726-3.855,3.855-3.855H538.37c2.129,0,3.855,1.726,3.855,3.855v47.032
					C542.225,328.289,540.499,330.015,538.37,330.015z"/>
			</g>
			<g>
				<g>
					<path style="fill:#263238;" d="M538.37,330.015c-0.004-0.026,0.411,0.021,1.158-0.206c0.714-0.23,1.845-0.867,2.395-2.304
						c0.305-0.704,0.235-1.569,0.237-2.511c-0.004-0.943-0.008-1.974-0.012-3.09c-0.007-2.235-0.015-4.811-0.024-7.711
						c-0.012-5.805-0.027-12.903-0.044-21.141c-0.006-4.121-0.013-8.527-0.02-13.2c-0.002-0.592,0.022-1.163-0.139-1.707
						c-0.146-0.548-0.431-1.06-0.818-1.483c-0.771-0.876-1.947-1.3-3.16-1.214c-2.467,0.003-4.999,0.006-7.592,0.009
						c-41.503,0.02-98.818,0.046-162.123,0.076c-0.927-0.003-1.84,0.364-2.502,1.007c-0.667,0.636-1.069,1.535-1.097,2.452
						c-0.003,1.964-0.005,3.921-0.007,5.872c0,3.909-0.001,7.792-0.001,11.647c-0.001,7.71-0.003,15.306-0.004,22.77
						c-0.001,1.866-0.001,3.724-0.001,5.573c0.021,0.937-0.096,1.851,0.257,2.639c0.318,0.799,0.932,1.473,1.692,1.866
						c0.379,0.198,0.794,0.328,1.218,0.375c0.412,0.044,0.885,0.024,1.337,0.029c0.911,0,1.821,0.001,2.728,0.001
						c1.814,0.001,3.618,0.001,5.414,0.002c7.181,0.003,14.21,0.006,21.069,0.009c27.433,0.021,52.137,0.04,72.886,0.056
						c20.741,0.035,37.526,0.063,49.138,0.083c5.794,0.021,10.295,0.038,13.359,0.049c1.52,0.011,2.681,0.02,3.474,0.026
						C537.969,329.997,538.37,330.015,538.37,330.015s-0.401,0.018-1.184,0.027c-0.793,0.006-1.955,0.014-3.474,0.026
						c-3.065,0.011-7.566,0.028-13.359,0.049c-11.612,0.02-28.397,0.048-49.138,0.083c-20.75,0.016-45.454,0.035-72.886,0.056
						c-6.859,0.003-13.888,0.006-21.069,0.009c-1.795,0.001-3.6,0.001-5.414,0.002c-0.907,0-1.816,0.001-2.728,0.001
						c-0.458-0.006-0.9,0.019-1.397-0.032c-0.484-0.054-0.958-0.202-1.39-0.427c-0.867-0.448-1.566-1.215-1.93-2.127
						c-0.184-0.454-0.285-0.944-0.29-1.436l-0.004-1.39c0-1.849-0.001-3.707-0.001-5.573c-0.001-7.464-0.003-15.061-0.004-22.77
						c0-3.855-0.001-7.738-0.001-11.647c0.002-1.958,0.005-3.922,0.007-5.892c0.032-1.05,0.494-2.081,1.256-2.808
						c0.755-0.735,1.807-1.157,2.863-1.152c63.305,0.03,120.62,0.057,162.123,0.076c2.593,0.003,5.125,0.006,7.592,0.009
						c1.247-0.092,2.593,0.378,3.413,1.336c0.422,0.464,0.731,1.024,0.889,1.622c0.175,0.601,0.146,1.225,0.146,1.797
						c-0.007,4.672-0.014,9.079-0.02,13.2c-0.017,8.239-0.032,15.336-0.044,21.141c-0.009,2.899-0.017,5.476-0.024,7.711
						c-0.004,1.116-0.009,2.147-0.012,3.09c-0.01,0.931,0.052,1.824-0.269,2.548c-0.582,1.47-1.749,2.1-2.477,2.317
						C538.781,330.073,538.37,330.015,538.37,330.015z"/>
				</g>
			</g>
		</g>
		<g>
			<g>
				<path style="fill:#FF725E;" d="M451.555,291.283l-2.51,5.086c-0.282,0.572-0.828,0.969-1.459,1.06l-5.613,0.816
					c-1.59,0.231-2.224,2.185-1.074,3.306l4.061,3.959c0.457,0.445,0.665,1.087,0.557,1.715l-0.959,5.59
					c-0.271,1.583,1.39,2.791,2.812,2.043l5.02-2.639c0.565-0.297,1.239-0.297,1.804,0l5.02,2.639
					c1.422,0.747,3.084-0.46,2.812-2.043l-0.959-5.59c-0.108-0.629,0.101-1.27,0.557-1.715l4.061-3.959
					c1.15-1.121,0.516-3.075-1.074-3.306L459,297.429c-0.631-0.092-1.177-0.488-1.459-1.06l-2.51-5.086
					C454.32,289.842,452.266,289.842,451.555,291.283z"/>
			</g>
			<g>
				<path style="fill:#FF725E;" d="M483.882,291.283l-2.51,5.086c-0.282,0.572-0.828,0.969-1.459,1.06l-5.613,0.816
					c-1.59,0.231-2.225,2.185-1.074,3.306l4.061,3.959c0.457,0.445,0.665,1.087,0.557,1.715l-0.959,5.59
					c-0.272,1.583,1.39,2.791,2.812,2.043l5.02-2.639c0.565-0.297,1.239-0.297,1.804,0l5.02,2.639
					c1.422,0.747,3.084-0.46,2.812-2.043l-0.959-5.59c-0.108-0.629,0.101-1.27,0.557-1.715l4.061-3.959
					c1.15-1.121,0.516-3.075-1.074-3.306l-5.613-0.816c-0.631-0.092-1.177-0.488-1.459-1.06l-2.51-5.086
					C486.648,289.842,484.593,289.842,483.882,291.283z"/>
			</g>
			<g>
				<path style="fill:#E0E0E0;" d="M516.21,291.283l-2.51,5.086c-0.282,0.572-0.828,0.969-1.459,1.06l-5.613,0.816
					c-1.59,0.231-2.224,2.185-1.074,3.306l4.061,3.959c0.457,0.445,0.665,1.087,0.557,1.715l-0.959,5.59
					c-0.272,1.583,1.39,2.791,2.812,2.043l5.02-2.639c0.565-0.297,1.239-0.297,1.804,0l5.02,2.639
					c1.422,0.747,3.084-0.46,2.812-2.043l-0.959-5.59c-0.108-0.629,0.101-1.27,0.557-1.715l4.061-3.959
					c1.15-1.121,0.516-3.075-1.074-3.306l-5.613-0.816c-0.631-0.092-1.177-0.488-1.459-1.06l-2.51-5.086
					C518.975,289.842,516.921,289.842,516.21,291.283z"/>
			</g>
			<g>
				<path style="fill:#FF725E;" d="M419.228,291.283l-2.51,5.086c-0.282,0.572-0.828,0.969-1.459,1.06l-5.613,0.816
					c-1.59,0.231-2.224,2.185-1.074,3.306l4.061,3.959c0.457,0.445,0.665,1.087,0.557,1.715l-0.959,5.59
					c-0.272,1.583,1.39,2.791,2.812,2.043l5.02-2.639c0.565-0.297,1.239-0.297,1.804,0l5.02,2.639
					c1.422,0.747,3.084-0.46,2.812-2.043l-0.959-5.59c-0.108-0.629,0.101-1.27,0.557-1.715l4.061-3.959
					c1.15-1.121,0.516-3.075-1.074-3.306l-5.613-0.816c-0.631-0.092-1.177-0.488-1.459-1.06l-2.51-5.086
					C421.993,289.842,419.938,289.842,419.228,291.283z"/>
			</g>
			<g>
				<path style="fill:#FF725E;" d="M386.9,291.283l-2.51,5.086c-0.282,0.572-0.828,0.969-1.459,1.06l-5.613,0.816
					c-1.59,0.231-2.224,2.185-1.074,3.306l4.061,3.959c0.457,0.445,0.665,1.087,0.557,1.715l-0.959,5.59
					c-0.272,1.583,1.39,2.791,2.812,2.043l5.02-2.639c0.565-0.297,1.239-0.297,1.804,0l5.02,2.639
					c1.422,0.747,3.084-0.46,2.812-2.043l-0.959-5.59c-0.108-0.629,0.101-1.27,0.557-1.715l4.061-3.959
					c1.15-1.121,0.516-3.075-1.074-3.306l-5.613-0.816c-0.631-0.092-1.177-0.488-1.459-1.06l-2.51-5.086
					C389.665,289.842,387.611,289.842,386.9,291.283z"/>
			</g>
		</g>
	</g>
</g>
<g id="Speech_Bubble">
	<g>
		<g>
			<g>
				<g>
					<g>
						<path style="fill:#FFFFFF;" d="M166.556,269.974H50.405c-10.128,0-18.339,8.211-18.339,18.339v43.564
							c0,10.128,8.211,18.339,18.339,18.339h67.063c3.036,6.575,8.729,11.853,15.16,15.33c5.26,2.844,10.985,4.637,16.827,5.997
							c2.293,0.534,4.009-2.072,2.574-3.938c-3.905-5.074-6.576-11.096-7.797-17.389h22.323c10.128,0,18.339-8.211,18.339-18.339
							v-43.564C184.895,278.185,176.684,269.974,166.556,269.974z"/>
					</g>
					<g>
						<g>
							<path style="fill:#263238;" d="M166.556,269.974c0,0,0.194-0.002,0.577,0.011c0.381,0.031,0.958-0.004,1.703,0.109
								c1.493,0.157,3.726,0.624,6.333,1.953c2.564,1.352,5.49,3.711,7.574,7.425c1.012,1.859,1.786,4.04,2.1,6.449
								c0.163,1.202,0.182,2.463,0.18,3.738c0.002,1.281,0.005,2.598,0.007,3.952c0.003,10.831,0.074,23.953,0.017,38.999
								c-0.041,1.898-0.433,3.815-1.109,5.649c-0.679,1.83-1.618,3.616-2.901,5.176c-2.524,3.123-6.145,5.593-10.321,6.506
								c-2.075,0.493-4.259,0.507-6.401,0.49c-2.156,0.002-4.339,0.003-6.546,0.005c-4.414,0.003-8.928,0.006-13.536,0.009
								l0.224-0.272c0.947,4.853,2.789,9.677,5.543,14.088c0.69,1.102,1.436,2.172,2.234,3.222c0.432,0.572,0.646,1.334,0.523,2.056
								c-0.125,0.719-0.528,1.385-1.131,1.806c-0.587,0.444-1.376,0.59-2.091,0.456c-0.68-0.139-1.319-0.305-1.98-0.467
								c-1.312-0.329-2.626-0.685-3.936-1.077c-5.23-1.565-10.468-3.714-15.138-6.982c-4.641-3.253-8.756-7.601-11.245-12.95
								l0.231,0.148c-15.442,0.002-31.439,0.003-47.825,0.005c-4.083,0-8.142,0-12.175,0c-2.016,0-4.026,0-6.028,0
								c-0.995,0.018-2.015-0.044-3.023-0.109l-1.499-0.229c-0.5-0.074-0.981-0.237-1.472-0.351
								c-1.941-0.543-3.786-1.39-5.454-2.499c-1.65-1.135-3.108-2.525-4.322-4.094c-1.222-1.563-2.181-3.326-2.808-5.192
								c-0.626-1.861-1.029-3.807-1.034-5.762c0.007-15.404,0.015-30.261,0.022-44.416c0.007-1.796,0.388-3.556,0.891-5.247
								c0.545-1.687,1.36-3.258,2.314-4.718c1.002-1.432,2.181-2.715,3.491-3.834c1.349-1.066,2.789-2.01,4.35-2.685
								c1.56-0.654,3.179-1.183,4.842-1.379c1.658-0.26,3.32-0.206,4.936-0.21c3.251,0.002,6.451,0.005,9.597,0.007
								c12.584,0.011,24.306,0.022,35.008,0.032c21.396,0.035,38.712,0.063,50.69,0.083c5.977,0.021,10.621,0.038,13.782,0.049
								c1.568,0.011,2.766,0.02,3.584,0.026C166.142,269.957,166.556,269.974,166.556,269.974s-0.414,0.018-1.221,0.027
								c-0.818,0.006-2.016,0.015-3.584,0.026c-3.161,0.011-7.804,0.028-13.782,0.049c-11.978,0.02-29.294,0.048-50.69,0.083
								c-10.702,0.01-22.424,0.02-35.008,0.032c-3.146,0.002-6.346,0.004-9.597,0.007c-1.63,0.006-3.264-0.044-4.872,0.212
								c-1.622,0.192-3.2,0.712-4.721,1.35c-1.521,0.66-2.923,1.583-4.239,2.623c-1.276,1.093-2.424,2.345-3.399,3.742
								c-0.927,1.425-1.721,2.956-2.25,4.6c-0.486,1.648-0.858,3.362-0.862,5.113c0.003,14.147,0.006,28.998,0.009,44.393
								c0.006,1.902,0.399,3.794,1.008,5.603c0.61,1.814,1.543,3.528,2.732,5.047c1.18,1.525,2.599,2.876,4.203,3.98
								c1.622,1.077,3.416,1.9,5.302,2.427c0.477,0.11,0.944,0.27,1.43,0.341l1.457,0.222c0.982,0.062,1.96,0.124,2.968,0.106
								c2.002,0,4.012,0,6.028,0c4.032,0,8.091,0,12.175,0c16.386,0.002,32.383,0.004,47.825,0.005h0.163l0.069,0.148
								c2.438,5.248,6.488,9.538,11.069,12.754c4.606,3.229,9.795,5.365,14.991,6.924c1.302,0.39,2.608,0.746,3.914,1.074
								c0.649,0.16,1.315,0.332,1.95,0.462c0.599,0.11,1.237-0.005,1.722-0.372c0.499-0.345,0.834-0.903,0.937-1.492
								c0.099-0.593-0.071-1.207-0.431-1.69c-0.801-1.055-1.559-2.145-2.255-3.258c-2.781-4.465-4.638-9.344-5.589-14.252
								l-0.053-0.272l0.277,0c4.608,0.003,9.122,0.006,13.536,0.009c2.207,0.002,4.389,0.003,6.546,0.005
								c2.163,0.02,4.275,0.008,6.307-0.469c4.082-0.884,7.627-3.294,10.103-6.345c1.259-1.524,2.18-3.271,2.849-5.061
								c0.666-1.794,1.054-3.67,1.097-5.53c0.035-15.027,0.065-28.155,0.09-38.984c-0.034-2.702,0.119-5.284-0.155-7.659
								c-0.3-2.379-1.054-4.537-2.045-6.38c-2.042-3.683-4.924-6.038-7.458-7.4c-2.576-1.339-4.791-1.827-6.275-2.006
								c-0.741-0.125-1.316-0.101-1.695-0.144C166.75,269.996,166.556,269.974,166.556,269.974z"/>
						</g>
					</g>
				</g>
			</g>
		</g>
		<g>
			
				<ellipse transform="matrix(0.7071 -0.7071 0.7071 0.7071 -200.9401 131.6217)" style="fill:#FF725E;" cx="58.411" cy="308.367" rx="10.789" ry="10.789"/>
		</g>
		<g>
			<rect x="76.701" y="297.657" style="fill:#E0E0E0;" width="85.346" height="5.016"/>
		</g>
		<g>
			<rect x="76.701" y="309.645" style="fill:#E0E0E0;" width="85.346" height="5.016"/>
		</g>
		<g>
			<rect x="76.701" y="321.633" style="fill:#E0E0E0;" width="34.44" height="5.016"/>
		</g>
	</g>
</g>
<g id="Character">
	<g>
		<g>
			<g>
				<g>
					<g>
						<g>
							<g>
								<g>
									<g>
										<g>
											<g>
												<g>
													<g>
														<g>
															<g>
																<g>
																	<path style="fill:#263238;" d="M585.503,451.537l0.942,17.196c0,0-17.162,6.733-17.297,9.928l33.407-0.63
																		l-0.369-26.853L585.503,451.537z"/>
																</g>
															</g>
														</g>
													</g>
												</g>
											</g>
										</g>
									</g>
								</g>
							</g>
						</g>
					</g>
				</g>
			</g>
			<g>
				<g>
					<g>
						<g>
							<g>
								<g>
									<g>
										<g>
											<g>
												<g>
													<g>
														<g>
															<g>
																<g>
																	<path style="fill:#455A64;" d="M602.555,478.031l-0.036-2.601l-32.084,1.511c0,0-1.475,0.675-1.287,1.72
																		L602.555,478.031z"/>
																</g>
															</g>
														</g>
													</g>
												</g>
											</g>
										</g>
									</g>
								</g>
							</g>
						</g>
					</g>
				</g>
			</g>
			<g>
				<g>
					<g>
						<g>
							<g>
								<g>
									<g>
										<g>
											<g>
												<g>
													<g>
														<g>
															<g>
																<g>
																	<g>
																		<path style="fill:#FFFFFF;" d="M585.9,468.573c0.008,0.163,0.826,0.222,1.638,0.731
																			c0.826,0.488,1.253,1.187,1.402,1.119c0.15-0.034-0.112-1.005-1.106-1.605
																			C586.845,468.211,585.862,468.424,585.9,468.573z"/>
																	</g>
																</g>
															</g>
														</g>
													</g>
												</g>
											</g>
										</g>
									</g>
								</g>
							</g>
						</g>
					</g>
				</g>
			</g>
			<g>
				<g>
					<g>
						<g>
							<g>
								<g>
									<g>
										<g>
											<g>
												<g>
													<g>
														<g>
															<g>
																<g>
																	<g>
																		<path style="fill:#FFFFFF;" d="M582.424,470.089c-0.034,0.159,0.677,0.423,1.245,1.102
																			c0.587,0.663,0.741,1.406,0.903,1.396c0.154,0.023,0.249-0.934-0.473-1.766
																			C583.385,469.983,582.424,469.933,582.424,470.089z"/>
																	</g>
																</g>
															</g>
														</g>
													</g>
												</g>
											</g>
										</g>
									</g>
								</g>
							</g>
						</g>
					</g>
				</g>
			</g>
			<g>
				<g>
					<g>
						<g>
							<g>
								<g>
									<g>
										<g>
											<g>
												<g>
													<g>
														<g>
															<g>
																<g>
																	<g>
																		<path style="fill:#FFFFFF;" d="M580.513,474.32c0.149,0.032,0.36-0.788-0.075-1.673
																			c-0.43-0.889-1.205-1.227-1.272-1.09c-0.09,0.136,0.415,0.606,0.761,1.338
																			C580.291,473.62,580.35,474.307,580.513,474.32z"/>
																	</g>
																</g>
															</g>
														</g>
													</g>
												</g>
											</g>
										</g>
									</g>
								</g>
							</g>
						</g>
					</g>
				</g>
			</g>
		</g>
		<g>
			<g>
				<g>
					<g>
						<g>
							<g>
								<g>
									<g>
										<g>
											<g>
												<path style="fill:#263238;" d="M648.917,449.443l5.614,20.065l9.016,14.59c0.65,1.051,0.273,2.434-0.82,3.01l0,0
													c-0.612,0.323-1.337,0.332-1.954,0.02c-3.93-1.991-18.352-9.385-18.68-10.876c-0.38-1.727-7.327-20.772-7.327-20.772
													L648.917,449.443z"/>
											</g>
										</g>
									</g>
								</g>
							</g>
						</g>
					</g>
				</g>
			</g>
			<g>
				<g>
					<g>
						<g>
							<g>
								<g>
									<g>
										<g>
											<g>
												<path style="fill:#455A64;" d="M662.728,487.109l-21.044-12.202l0.257,0.845c0.223,0.73,0.693,1.359,1.336,1.771
													c1.719,1.102,6.531,4.04,17.437,9.625C661.348,487.472,662.107,487.458,662.728,487.109L662.728,487.109z"/>
											</g>
										</g>
									</g>
								</g>
							</g>
						</g>
					</g>
				</g>
			</g>
			<g>
				<g>
					<g>
						<g>
							<g>
								<g>
									<g>
										<g>
											<g>
												<g>
													<path style="fill:#FFFFFF;" d="M655.52,479.788c0.13,0.021,0.261-1.16,1.275-2.083
														c0.987-0.953,2.173-1.007,2.161-1.138c0.003-0.054-0.297-0.132-0.783-0.056c-0.483,0.072-1.138,0.343-1.691,0.86
														c-0.551,0.518-0.864,1.154-0.968,1.631C655.407,479.483,655.465,479.787,655.52,479.788z"/>
												</g>
											</g>
										</g>
									</g>
								</g>
							</g>
						</g>
					</g>
				</g>
			</g>
			<g>
				<g>
					<g>
						<g>
							<g>
								<g>
									<g>
										<g>
											<g>
												<g>
													<path style="fill:#FFFFFF;" d="M657.752,482.024c0.121,0.057,0.563-0.785,1.504-1.395
														c0.927-0.63,1.876-0.71,1.87-0.844c0.026-0.119-1.062-0.25-2.123,0.463
														C657.935,480.949,657.632,482.002,657.752,482.024z"/>
												</g>
											</g>
										</g>
									</g>
								</g>
							</g>
						</g>
					</g>
				</g>
			</g>
			<g>
				<g>
					<g>
						<g>
							<g>
								<g>
									<g>
										<g>
											<g>
												<g>
													<path style="fill:#FFFFFF;" d="M651.835,477.172c0.122,0.066,0.796-1.234,2.176-2.309
														c1.364-1.098,2.783-1.456,2.747-1.59c0-0.116-1.565,0.058-3.031,1.231C652.25,475.662,651.722,477.145,651.835,477.172
														z"/>
												</g>
											</g>
										</g>
									</g>
								</g>
							</g>
						</g>
					</g>
				</g>
			</g>
			<g>
				<g>
					<g>
						<g>
							<g>
								<g>
									<g>
										<g>
											<g>
												<g>
													<path style="fill:#FFFFFF;" d="M649.619,471.215c0.09,0.103,1.05-0.693,2.468-1.18c1.411-0.508,2.658-0.49,2.663-0.627
														c0.025-0.114-1.298-0.347-2.815,0.195C650.412,470.131,649.527,471.142,649.619,471.215z"/>
												</g>
											</g>
										</g>
									</g>
								</g>
							</g>
						</g>
					</g>
				</g>
			</g>
			<g>
				<g>
					<g>
						<g>
							<g>
								<g>
									<g>
										<g>
											<g>
												<g>
													<path style="fill:#FFFFFF;" d="M647.799,466.529c0.097,0.096,1.002-0.905,2.536-1.297
														c1.526-0.426,2.809-0.009,2.845-0.141c0.02-0.051-0.274-0.235-0.814-0.361c-0.536-0.127-1.325-0.158-2.149,0.06
														c-0.823,0.222-1.49,0.642-1.892,1.02C647.919,466.188,647.756,466.495,647.799,466.529z"/>
												</g>
											</g>
										</g>
									</g>
								</g>
							</g>
						</g>
					</g>
				</g>
			</g>
		</g>
		<g>
			<g>
				<g>
					<path style="fill:#263238;" d="M644.743,200.597c0.105-2.003-1.737-3.889-3.742-3.831c1.933-1.651,1.813-5.124-0.229-6.637
						c-2.043-1.513-5.4-0.617-6.416,1.714c-0.923-3.777-5.118-6.422-8.924-5.626c-3.806,0.796-6.59,4.9-5.922,8.73l0.039,18.522
						c0.405,1.68,1.759,3.097,3.419,3.578c1.66,0.481,3.562,0.007,4.803-1.196c1.399,1.328,3.716,1.558,5.35,0.532
						c1.633-1.026,2.431-3.214,1.841-5.051c0.689,1.359,2.639,1.723,3.974,0.989c1.335-0.734,2.07-2.274,2.222-3.79
						c0.152-1.516-0.189-3.034-0.538-4.517C642.608,204.282,644.637,202.599,644.743,200.597z"/>
				</g>
			</g>
			<g>
				<g>
					<path style="fill:#263238;" d="M627.877,204.833c-2.434-6.163-6.903-10.693-13.184-12.819
						c-3.543-1.199-5.255-0.931-8.042-1.061c-2.787-0.13-5.542,0.504-7.768,2.185c-2.644,1.996-5.096,4.393-6.444,7.418
						c-1.385,3.107-2.777,6.235-3.569,9.543c-0.792,3.308-0.956,6.842,0.107,10.073l7.768,4.061
						c4.493,1.609,9.051,3.232,13.809,3.613c4.758,0.381,9.82-0.621,13.432-3.738C629.004,219.778,630.311,210.996,627.877,204.833z
						"/>
				</g>
			</g>
			<g>
				<g>
					<path style="fill:#AE7461;" d="M620.576,202.436l-9.57-7.865l-2.971-0.584c-6.453-2.04-13.175,3.639-14.889,8.842
						c-1.904,5.78-4,12.912-4.448,17.478c-0.899,9.182,6.208,12.245,6.208,12.245l-1.78,8.565l6.878,7.488l9.699-7.214
						l12.829-35.085C622.983,204.704,622.133,203.023,620.576,202.436z"/>
				</g>
			</g>
			<g>
				<g>
					<path style="fill:#6F4439;" d="M602.236,222.423c0.085-0.472-0.038-0.953-0.271-1.331c-0.466-0.755-1.388-1.109-2.227-0.855
						c-0.839,0.254-1.545,1.1-1.705,2.045l0,0c0.216,0.653,0.692,1.2,1.327,1.466c0.099,0.041,0.2,0.078,0.303,0.108
						c0.5,0.146,1.057,0.14,1.553-0.104C601.711,223.508,602.131,223.005,602.236,222.423z"/>
				</g>
			</g>
			<g>
				<g>
					<path style="fill:#263238;" d="M594.811,211.649c-0.177,0.592,0.179,1.229,0.794,1.425c0.614,0.196,1.255-0.124,1.432-0.715
						c0.177-0.592-0.179-1.23-0.792-1.426C595.63,210.737,594.988,211.058,594.811,211.649z"/>
				</g>
			</g>
			<g>
				<g>
					<path style="fill:#263238;" d="M594.181,206.354c0.102,0.184,1.125-0.226,2.342,0.094c1.22,0.303,1.951,1.162,2.122,1.047
						c0.082-0.049,0.008-0.352-0.307-0.737c-0.309-0.382-0.891-0.826-1.651-1.021c-0.76-0.193-1.471-0.081-1.912,0.109
						C594.326,206.036,594.13,206.27,594.181,206.354z"/>
				</g>
			</g>
			<g>
				<g>
					<path style="fill:#263238;" d="M598.867,218.194c0.024-0.068-0.699-0.396-1.885-0.872c-0.302-0.113-0.581-0.252-0.578-0.477
						c-0.015-0.244,0.203-0.544,0.448-0.867c0.489-0.676,1-1.384,1.537-2.126c2.156-3.035,3.804-5.564,3.68-5.65
						c-0.124-0.086-1.971,2.305-4.127,5.341c-0.524,0.751-1.025,1.466-1.502,2.15c-0.21,0.323-0.517,0.67-0.479,1.178
						c0.023,0.254,0.208,0.482,0.393,0.588c0.184,0.113,0.357,0.162,0.509,0.211C598.08,218.057,598.844,218.262,598.867,218.194z"
						/>
				</g>
			</g>
			<g>
				<g>
					<path style="fill:#6F4439;" d="M594.895,232.537c0,0,5.837,1.93,12.64-0.069c0,0-4.554,5.818-13.171,2.691L594.895,232.537z"/>
				</g>
			</g>
			<g>
				<g>
					<path style="fill:#263238;" d="M602.231,219.969c-0.195-0.063-0.542,1.257-1.918,1.899c-1.374,0.646-2.745,0.131-2.804,0.312
						c-0.04,0.078,0.247,0.338,0.837,0.51c0.578,0.172,1.479,0.207,2.321-0.186c0.84-0.395,1.337-1.084,1.524-1.615
						C602.386,220.351,602.324,219.986,602.231,219.969z"/>
				</g>
			</g>
			<g>
				<g>
					<path style="fill:#263238;" d="M595.931,202.297c0.127,0.35,1.112,0.395,2.177,0.77c1.078,0.34,1.894,0.896,2.203,0.691
						c0.141-0.103,0.097-0.423-0.202-0.821c-0.294-0.395-0.866-0.838-1.602-1.084c-0.737-0.245-1.458-0.233-1.927-0.093
						C596.104,201.899,595.88,202.13,595.931,202.297z"/>
				</g>
			</g>
			<g>
				<g>
					<path style="fill:#263238;" d="M607.632,214.942c-0.157,0.597-0.793,0.957-1.42,0.804c-0.626-0.152-1.007-0.759-0.85-1.356
						c0.157-0.597,0.793-0.957,1.419-0.805C607.408,213.737,607.789,214.345,607.632,214.942z"/>
				</g>
			</g>
			<g>
				<g>
					<path style="fill:#263238;" d="M610.526,211.076c-0.183,0.104-0.842-0.778-2.048-1.138c-1.2-0.376-2.271-0.023-2.357-0.21
						c-0.045-0.085,0.177-0.305,0.646-0.469c0.463-0.165,1.192-0.241,1.941-0.012c0.749,0.23,1.298,0.697,1.575,1.088
						C610.568,210.729,610.614,211.031,610.526,211.076z"/>
				</g>
			</g>
			<g>
				<g>
					<path style="fill:#263238;" d="M611.034,207.014c-0.32,0.202-1.164-0.362-2.278-0.712c-1.103-0.385-2.12-0.438-2.252-0.79
						c-0.054-0.167,0.178-0.397,0.67-0.531c0.485-0.135,1.231-0.141,1.993,0.111c0.761,0.253,1.353,0.701,1.657,1.098
						C611.134,206.592,611.179,206.912,611.034,207.014z"/>
				</g>
			</g>
			<g>
				<g>
					<path style="fill:#263238;" d="M618.623,218.544l-2.001,1.076c-4.497-8.278-12.194-27.863-11.784-26.711
						c0,0,5.028-0.404,9.586,1.961c4.559,2.364,12.932,7.703,10.971,13.34C623.435,213.848,618.623,218.544,618.623,218.544z"/>
				</g>
			</g>
			<g>
				<g>
					<path style="fill:#AE7461;" d="M616.376,220.389c0.173-0.656,1.336-2.006,2.012-1.938c1.803,0.182,4.891,1.135,3.773,5.54
						c-1.529,6.021-7.265,3.245-7.231,3.069C614.955,226.923,615.779,222.654,616.376,220.389z"/>
				</g>
			</g>
			<g>
				<g>
					<path style="fill:#6F4439;" d="M617.15,225.282c0.031-0.013,0.086,0.1,0.243,0.226c0.153,0.123,0.437,0.253,0.781,0.215
						c0.696-0.072,1.489-0.946,1.793-2.024c0.155-0.544,0.172-1.095,0.088-1.577c-0.072-0.487-0.279-0.867-0.586-1.005
						c-0.3-0.155-0.576-0.02-0.693,0.13c-0.124,0.148-0.116,0.278-0.15,0.28c-0.021,0.011-0.104-0.134,0.008-0.37
						c0.055-0.114,0.162-0.238,0.333-0.318c0.174-0.081,0.402-0.087,0.62-0.006c0.456,0.15,0.766,0.684,0.859,1.212
						c0.118,0.537,0.111,1.16-0.062,1.771c-0.347,1.204-1.256,2.181-2.192,2.212c-0.452,0.003-0.773-0.215-0.92-0.403
						C617.124,225.43,617.126,225.288,617.15,225.282z"/>
				</g>
			</g>
			<g>
				<g>
					<g>
						<path style="fill:#455A64;" d="M627.858,218.916c-0.026-0.009,0.086-0.383,0.266-1.064c0.181-0.68,0.404-1.674,0.567-2.919
							c0.337-2.474,0.296-6.027-0.933-9.66c-1.228-3.635-3.352-6.484-5.121-8.246c-0.884-0.89-1.665-1.546-2.221-1.976
							c-0.555-0.432-0.872-0.661-0.856-0.684c0.006-0.01,0.093,0.036,0.252,0.133c0.157,0.1,0.397,0.237,0.682,0.445
							c0.584,0.401,1.395,1.033,2.311,1.912c1.832,1.738,4.024,4.611,5.273,8.308c1.25,3.695,1.251,7.309,0.849,9.802
							c-0.195,1.254-0.456,2.249-0.677,2.922c-0.101,0.339-0.208,0.593-0.272,0.768C627.909,218.831,627.869,218.92,627.858,218.916
							z"/>
					</g>
				</g>
			</g>
		</g>
		<g>
			<path style="fill:#263238;" d="M574.355,302.663c-0.513,0.523-11.113,24.79-10.576,37.644
				c0.537,12.853,8.286,57.593,8.286,57.593l12.385,69.211h17.986c0,0,0-44.245-1.611-56.357
				c-1.611-12.112-3.49-18.786-4.027-27.684c-0.537-8.898-0.69-27.614-1.227-26.872c-0.537,0.741,41.495,108.442,41.495,108.442
				l17.681-1.171c0,0-6.406-36.966-7.749-43.975c-1.342-7.009-6.711-28.514-10.738-39.39c-4.027-10.876-5.438-38.002-11.007-49.672
				c-5.568-11.67-6.713-22.936-6.713-22.936L574.355,302.663z"/>
		</g>
		<g>
			<path style="fill:#FF725E;" d="M634.759,59.228l10.698,29.96c1.203,3.37,4.055,5.977,7.626,6.972l31.751,8.849
				c8.993,2.506,11.203,13.759,3.74,19.041l-26.349,18.651c-2.964,2.098-4.641,5.469-4.486,9.016l1.381,31.531
				c0.391,8.931-10.084,14.291-17.727,9.07l-26.982-18.433c-3.035-2.073-6.924-2.597-10.399-1.4l-30.897,10.639
				c-8.751,3.013-17.436-4.927-14.696-13.436l9.673-30.043c1.088-3.379,0.362-7.074-1.941-9.881l-20.477-24.957
				c-5.8-7.068-0.692-17.335,8.644-17.373l32.961-0.135c3.707-0.015,7.147-1.775,9.199-4.706l18.242-26.063
				C619.888,49.148,631.729,50.742,634.759,59.228z"/>
		</g>
		<g>
			<path style="fill:#AE7461;" d="M554.913,186.956l2.19-3.707c0,0-5.521-11.502-5.555-12.541c-0.034-1.039,5.112-8.184,5.112-8.184
				l5.928-0.943c0,0,0.474,1.391-0.917,1.866c-1.391,0.475-3.248,0.952-3.248,0.952l-1.568,2.499c0,0,2.701-0.811,3.465-1.008
				c0.764-0.197,7.41-0.16,7.335,0.907c-0.075,1.067-1.048,2.715-2.414,2.833c-1.367,0.119-4.832,1.127-4.832,1.127
				s-1.295,0.799-0.368,1.259c0.927,0.46,5.157-0.745,5.956,0.097c0.799,0.842-0.234,1.806-0.973,1.648
				c-0.739-0.159-4.308,0.876-4.308,0.876s4.755,4.481,4.8,6.914c0.044,2.434-1.683,9.747-1.683,9.747L554.913,186.956z"/>
		</g>
		<g>
			<path style="fill:#AE7461;" d="M648.264,204.089c0,0-1.178-7.669-0.757-9.32c0.421-1.651,7.278-7.355,6.767-7.333
				c-0.51,0.022-4.726-2.866-4.625-3.716c0.101-0.85,0.101-0.85,0.101-0.85s-0.622-2.118,0.182-2.624
				c0.805-0.507,3.302,0.842,3.302,0.842s2.485-1.228,4.233-0.831c1.748,0.397,2.774,4.583,2.774,4.583s2.119-1.035,1.714-2.69
				c-0.406-1.655-0.906-3.699-0.906-3.699s0.951-0.749,1.796,0.592c0.844,1.341,1.67,6.813,1.37,8.538
				c-0.3,1.724-7.166,5.367-7.478,6.579c-0.312,1.211,1.461,8.975,1.461,8.975L648.264,204.089z"/>
		</g>
		<g>
			<g>
				<path style="fill:#FF725E;" d="M615.131,293.937l11.161-52.404l-15.104-2.371c0,0-4.644,3.436-10.017,3.436
					c-5.374,0-7.554-5.292-7.554-5.292l-9.767-2.358c0,0-13.615,14.808-15.531,32.843c-0.497,4.676,1.539,15.806,2.616,21.206
					c0.41,2.057,0.43,4.168,0.066,6.234l-3.575,20.257c13.556,12.986,36.715,11.12,52.37-0.961c1.623-2.192,0.261-6.282-0.983-8.71
					L615.131,293.937z"/>
			</g>
			<g>
				<path style="fill:#FF725E;" d="M554.64,185.964c0,0-15.78,30.943-13.252,36.078c4.942,10.04,32.903,32.584,32.903,32.584
					l12.527-17.146l-29.234-19.917l8.31-28.498L554.64,185.964z"/>
			</g>
			<g>
				<path style="fill:#FF725E;" d="M646.351,202.731l2.204,28.39l-28.751,9.318l-0.949,25.322l37.915-17.527
					c4.445-1.693,7.088-8.925,6.9-15.765c-0.341-12.405-5.196-34.098-5.196-34.098L646.351,202.731z"/>
			</g>
			<g>
				<g>
					<path style="fill:#263238;" d="M581.918,237.897c0.122,0.076-1.967,3.677-4.667,8.044c-2.7,4.368-4.988,7.846-5.11,7.771
						c-0.122-0.076,1.967-3.677,4.667-8.044C579.508,241.3,581.796,237.821,581.918,237.897z"/>
				</g>
			</g>
			<g>
				<g>
					<path style="fill:#263238;" d="M649.571,236.622c-0.133,0.056-0.721-0.947-1.314-2.238c-0.593-1.292-0.969-2.391-0.841-2.456
						c0.129-0.064,0.717,0.938,1.314,2.238C649.327,235.467,649.703,236.567,649.571,236.622z"/>
				</g>
			</g>
			<g>
				<g>
					<path style="fill:#263238;" d="M622.139,255.227c-0.136,0.017-0.538-2.449-0.552-5.524c-0.022-3.075,0.352-5.546,0.488-5.53
						c0.15,0.014,0.011,2.484,0.033,5.527C622.121,252.743,622.289,255.211,622.139,255.227z"/>
				</g>
			</g>
		</g>
	</g>
</g>
</svg>
