<svg xmlns="http://www.w3.org/2000/svg" viewBox="0 0 840 500" width="840" height="500"><title>GE_Workshops-svg</title><style>		.s0 { fill: #f7e9da } 		.s1 { fill: #73b471 } 		.s2 { fill: #7dc572 } 		.s3 { fill: #e0a476 } 		.s4 { fill: #c569a9 } 		.s5 { fill: #3bb54a } 		.s6 { fill: #676868 } 		.s7 { fill: #205c2e } 		.s8 { fill: #9adbf3 } 		.s9 { fill: #dbf1f7;stroke: #20577f } 		.s10 { fill: #132a17 } 		.s11 { fill: #99d097 } 		.s12 { fill: #ffffff } 		.s13 { fill: #d7ebd1 } 		.s14 { fill: #1d5d2f } 		.s15 { fill: #6c90c9 } 		.s16 { fill: #c8dce1 } 		.s17 { fill: #301717 } 		.s18 { fill: #b26f2b } 		.s19 { fill: #a86828 } 		.s20 { fill: #1a333b } 		.s21 { fill: #f6b254 } 		.s22 { fill: #d29a47 } 		.s23 { fill: #c9946b } 		.s24 { fill: #fcdc3d } 		.s25 { fill: #e8cb36 } 		.s26 { fill: #231112 } 		.s27 { fill: #926d4d } 		.s28 { fill: #c07a62 } 		.s29 { fill: #3f2a2e } 		.s30 { fill: #995588 } 		.s31 { fill: #ffd642 } 		.s32 { fill: #b3725b } 		.s33 { fill: none;stroke: #000000;stroke-linecap: round;stroke-width: 2 } 	</style><g id="Layer"><g id="Layer"><g id="Layer"><path id="Layer" class="s0" d="m94.4 499.1c-151.8-115.9-15-325.8 103.6-311.3 118.6 14.4 169.9-129.7 227.3-166 57.6-36.2 238-25.5 234.3 99.7-3.8 125.2 73 71.1 130.3 178.6 57.4 107.5-32.6 199-32.6 199h-663.1"></path></g><g id="Layer"><g id="Layer"><g id="Layer"><path id="Layer" class="s1" d="m657.8 310.2l-2.5 3.8-2.3-3.2 20.5-31.9c0-3.6-0.5-8.7-2.6-14.8-3.8-11.6-5.7-24.7 1.6-22.3 6.5 2 8.3 17.1 5.1 30.6l8-12.3c1.9-4.2 4.5-10.3 5.6-17.6 2.4-16.6 7.8-32 14.9-26 7.1 5.9-2.7 32.2-18.4 47.1l-4.1 6.4c11.1-11.1 29.6-18.1 34.9-12.3 5.3 5.7-7.4 9.4-19.6 10.7-9.2 1.1-15 3.8-17.8 5.5l-19.4 30.1c17.8-17.5 46.9-28.7 55.3-19.5 8.3 9.2-11.8 14.8-31 17-14.5 1.6-23.7 6-28.2 8.7z"></path><path id="Layer" class="s1" d="m157.2 206.5c-19.2-2.1-39.3-7.8-31-17 8.4-9.2 37.5 2 55.3 19.5l-19.4-30.1c-2.8-1.7-8.5-4.5-17.8-5.5-12.2-1.3-24.9-5-19.6-10.7 5.3-5.8 23.8 1.2 34.9 12.3l-4.1-6.3c-15.6-15-25.4-41.3-18.3-47.2 7.1-6 12.5 9.4 15 26.1 1 7.2 3.6 13.3 5.5 17.5l8 12.3c-3.2-13.5-1.4-28.5 5.1-30.6 7.4-2.4 5.5 10.7 1.7 22.3-2.1 6.2-2.6 11.2-2.6 14.8l20.5 31.9-2.3 3.2-2.5-3.9c-4.6-2.7-13.8-7.2-28.4-8.6z"></path><path id="Layer" class="s1" d="m310.5 372.3l-2.4 3.8-2.4-3.2 20.5-31.9c0-3.6-0.5-8.7-2.6-14.8-3.8-11.6-5.7-24.7 1.7-22.3 6.4 2 8.2 17.1 5 30.6l8-12.3c1.9-4.2 4.5-10.3 5.6-17.5 2.5-16.7 7.9-32.1 14.9-26.1 7.1 5.9-2.7 32.2-18.4 47.1l-4.1 6.4c11.1-11.1 29.6-18.1 34.9-12.3 5.3 5.7-7.4 9.4-19.5 10.7-9.2 1.1-15.1 3.8-17.9 5.5l-19.4 30.1c17.8-17.5 46.9-28.7 55.3-19.5 8.3 9.2-11.8 14.9-31 17-14.4 1.5-23.7 6-28.2 8.7z"></path></g></g><g id="Layer"><g id="Layer"><g id="Layer"><g id="Layer"><g id="Layer"><path id="Layer" class="s2" d="m368.5 499.5c0.1-5.7 0.1-11.7 0.2-17.7 0.2-3.9 0.2-7.8 0.3-11.7 0.1-4 0.1-7.9 0.2-11.9 0-0.9 0-1.8 0.1-2.6 0.9-37.2 2.5-71.4 5.1-75.3 1.8-2.6 5.9-5.8 10.8-8.9 0.5-0.4 1.2-0.8 1.8-1.2 2.1-1.3 19-7 21.1-8.2l17.9-1.2c0.1 0.1 17.2 5.8 17.3 5.8 0.7 0.5 1.5 0.9 2.2 1.3 6.2 3.7 12.5 7.5 16.1 10.9 0.5 0.4 0.9 0.9 1.4 1.4 0.3 0.3 0.6 0.7 0.8 1q0.4 0.5 0.7 1.7c2.2 7.8 3.2 38.6 3.9 72.1 0 2.4 0.1 4.9 0.1 7.3q0 1.6 0 3.2c0 0.8 0 1.5 0 2.2 0 0.3 0 0.7 0 1.1 0 1.8 0 3.7 0.1 5.4 0 1.3 0 2.7 0 4 0.1 7.2 0.1 14.5 0.1 21.3z"></path></g></g></g></g><g id="Layer"><g id="Layer"><path id="Layer" class="s3" d="m477.9 499.5c-2.8-12-5.4-23.9-5.5-29.6l-1.5-5.3-5.8-19.3-8.8-30.1c0 0 5.3-22.8 14.3-20.8 0 0 4.7 16 9.8 33.8 0.9 3 1.7 6.2 2.6 9.2 3.7 13 7 25.7 8.6 33.4 1.7 7.6 2.6 18.3 3.3 28.7z"></path><path id="Layer" class="s4" d="m483.1 437.4l-12.2 27.2-5.8-19.3 15.3-17.2c1 3.1 1.8 6.3 2.7 9.3z"></path></g><path id="Layer" class="s2" d="m483.6 429.3c-5.3 9.2-10.8 18.3-16.2 27.4-1.7-6-3.7-11.7-5.4-17-0.6-2.2-1.4-4.1-2.1-6.1v-0.1c-0.2-0.6-0.4-1.3-0.6-2.1-2.6-7.7-4.5-14-5.2-17.6-1.5-9.7 2.7-28.9 8.6-32.6 0.1 0.4 0.6-0.7 0.8-0.1 1.1 2.4 5.6 8.4 8 14.2 0.4 0.8 0.6 1.5 0.9 2.3 3.5 8.5 7.5 19.6 11.2 31.7z"></path></g><g id="Layer"><g id="Layer"><path id="Layer" class="s3" d="m342.9 499.5c0.6-10.4 1.6-21.1 3.2-28.7 1.7-7.7 5-20.4 8.7-33.4 0.9-3 1.7-6.2 2.6-9.2 5.1-17.8 9.8-33.8 9.8-33.8 9-2 14.3 20.8 14.3 20.8l-8.9 30.1-5.7 19.3-1.5 5.3c-0.1 5.7-2.7 17.6-5.5 29.6z"></path><path id="Layer" class="s4" d="m357.4 428.1l15.2 17.2-5.7 19.3-12.2-27.2c0.8-3 1.7-6.2 2.7-9.3z"></path></g><path id="Layer" class="s2" d="m365.4 397.6c0.3-0.8 0.5-1.5 0.9-2.3 2.3-5.8 6.9-11.8 8-14.2 0.2-0.6 0.7 0.5 0.8 0.1 5.9 3.7 10.1 22.9 8.6 32.6-0.7 3.6-2.6 9.9-5.2 17.6-0.2 0.8-0.5 1.5-0.7 2.1v0.1c-0.6 2-1.4 3.9-2 6.1-1.8 5.3-3.7 11-5.4 17-5.4-9.1-11-18.2-16.3-27.4 3.7-12.1 7.8-23.2 11.3-31.7z"></path></g><g id="Layer"><g id="Layer"><g id="Layer"><path id="Layer" class="s5" d="m417.8 378.7c-7.7 0-13.2-7.1-13.5-7.4-0.3-0.4-0.2-1.1 0.1-1.4 0.5-0.3 1-0.3 1.3 0.1 0.2 0.1 5.2 6.6 11.9 6.6 6.8 0 10.9-7.4 10.9-7.5 0.2-0.4 0.8-0.6 1.3-0.3 0.4 0.3 0.5 0.9 0.3 1.4-0.1 0.3-4.6 8.5-12.3 8.5z"></path></g></g><g id="Layer"><path id="Layer" class="s5" d="m385.1 446.2c-0.1 0-0.3 0-0.5-0.1-0.4-0.3-0.6-0.9-0.4-1.3l3.4-7.2c0.2-0.5 0.7-0.6 1.3-0.4 0.4 0.2 0.6 0.8 0.4 1.3l-3.4 7.1c-0.2 0.3-0.5 0.6-0.8 0.6z"></path></g><g id="Layer"><path id="Layer" class="s5" d="m378 440.3c-0.1 0.1-0.2 0.1-0.4 0.1-0.5 0-1-0.3-1-0.8l-0.6-7.9c0-0.6 0.3-1.1 0.9-1.1 0.5 0 0.9 0.3 0.9 0.8l0.7 7.9c0.1 0.5-0.1 0.8-0.5 1z"></path></g><g id="Layer"><path id="Layer" class="s5" d="m396.2 428c-0.4 0-0.8-0.3-0.9-0.9l-1.2-7.9c-0.1-0.5 0.2-1.1 0.7-1.2 0.6-0.1 1 0.4 1.1 0.9l1.2 7.9c0.1 0.5-0.2 1.1-0.8 1.2 0 0-0.1 0-0.1 0z"></path></g><g id="Layer"><path id="Layer" class="s5" d="m426.4 430.9c-0.1 0-0.3 0-0.4-0.1-0.5-0.3-0.6-0.9-0.3-1.4l3.7-6.8c0.3-0.5 0.9-0.7 1.3-0.3 0.5 0.3 0.6 0.8 0.4 1.4l-3.8 6.8c-0.2 0.2-0.6 0.4-0.9 0.4z"></path></g><g id="Layer"><path id="Layer" class="s5" d="m389.3 400.2c-0.2 0-0.3 0-0.5-0.1l-6.3-4.4c-0.4-0.3-0.6-0.9-0.3-1.4 0.3-0.4 0.8-0.5 1.3-0.3l6.2 4.3c0.5 0.4 0.6 1 0.4 1.4-0.3 0.3-0.6 0.5-0.8 0.5z"></path></g><g id="Layer"><path id="Layer" class="s5" d="m417.1 464.1c-0.1 0-0.3 0-0.4-0.1-0.5-0.2-0.7-0.9-0.5-1.3l3.4-7.1c0.2-0.6 0.8-0.7 1.3-0.5 0.4 0.3 0.6 0.9 0.4 1.3l-3.3 7.2c-0.1 0.3-0.5 0.5-0.9 0.5z"></path></g><g id="Layer"><path id="Layer" class="s5" d="m402.4 405.5c-0.3 0-0.7-0.1-0.8-0.4-0.2-0.5-0.1-1.1 0.4-1.5l6.2-4.2c0.5-0.3 1-0.1 1.3 0.3 0.2 0.5 0.1 1.1-0.3 1.5l-6.3 4.2c-0.2 0.1-0.4 0.1-0.5 0.1z"></path></g><g id="Layer"><path id="Layer" class="s5" d="m387.4 375.9c0 0.3 0 0.5-0.2 0.6-0.1 0.3-0.4 0.5-0.7 0.5-0.6 0-1-0.4-1-0.9l-0.3-4.6c0.5-0.4 1.2-0.7 1.8-1.2z"></path></g><g id="Layer"><path id="Layer" class="s5" d="m378.9 419.5c-0.3 0-0.6-0.1-0.7-0.4-0.3-0.4-0.2-1.1 0.3-1.4l6.3-4.2c0.4-0.3 0.9-0.1 1.3 0.3 0.2 0.4 0.1 1.1-0.4 1.4l-6.2 4.2c-0.3 0.1-0.4 0.1-0.6 0.1z"></path></g><g id="Layer"><path id="Layer" class="s5" d="m429.3 384.8c-0.2 0-0.3 0-0.5-0.1-0.4-0.3-0.6-1-0.2-1.4l3.5-5.8c0.4-0.5 0.9-0.6 1.3-0.4 0.5 0.4 0.6 1 0.3 1.4l-3.6 5.9c-0.2 0.3-0.4 0.4-0.8 0.4z"></path></g><g id="Layer"><path id="Layer" class="s5" d="m432.6 485.9c-0.2 0-0.6-0.1-0.7-0.4l-5.2-5.7c-0.3-0.4-0.3-1.1 0-1.4 0.5-0.4 1-0.3 1.3 0l5.2 5.7c0.4 0.5 0.4 1.1 0 1.4q-0.3 0.4-0.6 0.4z"></path></g><g id="Layer"><path id="Layer" class="s5" d="m413.5 484.7c-0.2 0-0.5-0.1-0.6-0.3l-5.2-5.8c-0.3-0.4-0.3-1.1 0-1.4 0.4-0.4 1-0.3 1.3 0l5.2 5.7c0.3 0.5 0.3 1.1 0 1.5-0.1 0.2-0.4 0.3-0.7 0.3z"></path></g><g id="Layer"><path id="Layer" class="s5" d="m393.2 479.8c-0.1 0-0.3 0-0.4-0.1-0.5-0.3-0.7-0.9-0.4-1.4l3.8-6.9c0.2-0.5 0.9-0.7 1.3-0.4 0.5 0.4 0.7 0.9 0.3 1.5l-3.7 6.9c-0.4 0.2-0.6 0.4-0.9 0.4z"></path></g><g id="Layer"><path id="Layer" class="s5" d="m404.1 462.5c-0.3 0-0.6-0.2-0.8-0.5l-3.5-7.1c-0.2-0.5 0-1.1 0.4-1.3 0.5-0.2 1.1-0.1 1.3 0.5l3.5 7c0.2 0.5 0 1.1-0.4 1.3-0.2 0.1-0.4 0.1-0.5 0.1z"></path></g><g id="Layer"><path id="Layer" class="s5" d="m374.4 461.5q-0.2 0.2-0.4 0.4c-0.3 0.1-0.6 0.1-0.9-0.2l-3.8-3.4c0-0.9 0-1.8 0.1-2.6l5 4.4c0.3 0.3 0.4 1 0 1.4z"></path></g><g id="Layer"><path id="Layer" class="s5" d="m404 387.4c-0.3 0-0.6-0.2-0.9-0.5l-3.4-7.1c-0.2-0.5 0-1 0.4-1.3 0.5-0.2 1.1-0.1 1.3 0.5l3.5 7c0.2 0.6 0 1.1-0.5 1.3-0.1 0-0.2 0.1-0.4 0.1z"></path></g><g id="Layer"><path id="Layer" class="s5" d="m426 413.4c0 0-0.1 0-0.2 0-0.6-0.1-0.9-0.7-0.8-1.2l1.4-7.8c0.1-0.5 0.6-0.9 1.1-0.8 0.5 0.2 0.9 0.7 0.7 1.2l-1.4 7.8c0 0.3-0.4 0.8-0.8 0.8z"></path></g><g id="Layer"><path id="Layer" class="s5" d="m413.8 420.2c0 0-0.2 0-0.3 0-0.5-0.1-0.8-0.7-0.7-1.2l1.4-7.8c0.1-0.5 0.5-0.8 1.1-0.7 0.5 0.1 0.8 0.6 0.7 1.2l-1.4 7.7c0 0.5-0.4 0.8-0.8 0.8z"></path></g><g id="Layer"><path id="Layer" class="s5" d="m422.5 394.3c-0.3 0-0.6-0.1-0.7-0.4l-4-6.7c-0.4-0.4-0.2-1.1 0.3-1.4 0.4-0.3 1-0.1 1.3 0.3l4 6.7c0.3 0.5 0.1 1.1-0.3 1.4-0.3 0.1-0.4 0.1-0.6 0.1z"></path></g><g id="Layer"><path id="Layer" class="s5" d="m385.8 463.8c-0.2-0.3-0.3-0.8-0.1-1.1l3.3-7.1c0.2-0.6 0.7-0.8 1.3-0.5 0.4 0.3 0.6 0.9 0.4 1.3l-3.2 7.2c-0.3 0.5-0.8 0.7-1.3 0.4-0.1-0.1-0.3-0.1-0.4-0.2z"></path></g><g id="Layer"><path id="Layer" class="s5" d="m410.1 442.9c-0.5 0-0.8-0.2-0.9-0.6l-2.7-7.5c-0.2-0.5 0-1.1 0.5-1.3 0.6-0.2 1.1 0 1.2 0.5l2.7 7.5c0.3 0.6 0 1.1-0.5 1.3-0.1 0.1-0.2 0.1-0.3 0.1z"></path></g><g id="Layer"><path id="Layer" class="s5" d="m439.9 488.8c-0.1 0-0.3 0-0.4-0.1-0.4-0.2-0.6-0.9-0.4-1.3l3.3-7.2c0.2-0.5 0.8-0.6 1.3-0.4 0.5 0.2 0.7 0.9 0.5 1.3l-3.4 7.1c-0.2 0.4-0.5 0.6-0.9 0.6z"></path></g><g id="Layer"><path id="Layer" class="s5" d="m452.2 470.6c-0.5 0-0.9-0.3-1-0.9l-1.2-7.8c-0.1-0.6 0.2-1.1 0.8-1.2 0.5-0.1 0.9 0.3 1 0.8l1.2 7.9c0.1 0.6-0.2 1.1-0.7 1.2-0.1 0-0.1 0-0.1 0z"></path></g><g id="Layer"><path id="Layer" class="s5" d="m452.9 412.6c-0.1 0-0.3 0-0.4-0.1-0.4-0.3-0.6-0.8-0.3-1.4l3.7-6.8c0.3-0.4 0.9-0.7 1.3-0.3 0.5 0.3 0.6 0.8 0.4 1.4l-3.8 6.8c-0.2 0.2-0.6 0.4-0.9 0.4z"></path></g><g id="Layer"><path id="Layer" class="s5" d="m440.7 440.4c-0.2 0-0.3 0-0.5-0.1l-6.3-4.3c-0.5-0.3-0.6-1-0.3-1.4 0.3-0.4 0.8-0.6 1.2-0.3l6.3 4.3c0.5 0.3 0.6 1 0.3 1.4-0.1 0.3-0.4 0.4-0.7 0.4z"></path></g><g id="Layer"><path id="Layer" class="s5" d="m374.4 487.3c-0.1 0-0.4 0-0.5-0.1-0.4-0.2-0.6-0.9-0.4-1.3l3.4-7.2c0.2-0.5 0.7-0.6 1.3-0.4 0.4 0.2 0.6 0.9 0.4 1.3l-3.4 7.1c-0.2 0.4-0.5 0.6-0.8 0.6z"></path></g><g id="Layer"><path id="Layer" class="s5" d="m451.3 451.2c-0.3 0-0.7-0.1-0.8-0.4-0.2-0.4-0.1-1.1 0.4-1.4l6.2-4.2c0.5-0.3 1-0.1 1.3 0.3 0.3 0.4 0.1 1.1-0.3 1.4l-6.3 4.2c-0.1 0.1-0.3 0.1-0.5 0.1z"></path></g><g id="Layer"><path id="Layer" class="s5" d="m436.1 461.3c-0.2 0.2-0.5 0.3-0.8 0.2-0.6-0.1-0.8-0.6-0.7-1.2l2-7.6c0.1-0.6 0.6-0.9 1.2-0.7 0.5 0.1 0.7 0.7 0.6 1.2l-1.9 7.7c-0.1 0.2-0.1 0.3-0.4 0.4z"></path></g><g id="Layer"><path id="Layer" class="s5" d="m462.9 380.2l-1.7 2.7c-0.2 0.3-0.4 0.4-0.7 0.4-0.2 0-0.3 0-0.6-0.1-0.4-0.3-0.5-1-0.2-1.4l1.9-2.9q0.6 0.5 1.3 1.3z"></path></g><g id="Layer"><path id="Layer" class="s5" d="m470 397.6l-1.7 2.8c-0.2 0.3-0.5 0.4-0.8 0.4-0.2 0-0.3 0-0.5-0.1-0.5-0.3-0.6-1-0.2-1.4l2.5-4c0.2 0.8 0.4 1.5 0.7 2.3z"></path></g><g id="Layer"><path id="Layer" class="s5" d="m399.6 499.5l-5-5.5c-0.3-0.5-0.3-1.1 0-1.4 0.4-0.5 1-0.3 1.3 0l5.2 5.7c0.3 0.3 0.3 0.8 0.1 1.2z"></path></g><g id="Layer"><path id="Layer" class="s5" d="m423.5 499.5h-2.9l3.1-2.8c0.4-0.3 1-0.3 1.3 0.1 0.1 0.2 0.2 0.4 0.2 0.8 0 0.2-0.1 0.5-0.3 0.6z"></path></g><g id="Layer"><path id="Layer" class="s5" d="m455.5 499.5l-0.9-1.9c-0.2-0.6 0-1.1 0.5-1.3 0.4-0.3 1.1-0.2 1.3 0.4l1.3 2.8z"></path></g><g id="Layer"><path id="Layer" class="s5" d="m448.7 424.7c-0.3 0-0.7-0.2-0.9-0.5l-3.4-7c-0.2-0.6 0-1.1 0.4-1.3 0.4-0.2 1.1-0.1 1.3 0.4l3.5 7c0.2 0.6 0 1.1-0.5 1.3-0.1 0.1-0.2 0.1-0.4 0.1z"></path></g><g id="Layer"><path id="Layer" class="s5" d="m452.5 395c0 0-0.1 0-0.2 0-0.6-0.1-0.9-0.7-0.8-1.2l1.4-7.8c0.1-0.5 0.6-0.9 1.1-0.7 0.5 0.1 0.9 0.6 0.8 1.1l-1.5 7.8c-0.1 0.5-0.4 0.8-0.8 0.8z"></path></g><g id="Layer"><path id="Layer" class="s5" d="m469.6 422c0 0-0.1 0-0.2 0-0.6-0.1-0.9-0.6-0.8-1.2l1.4-7.7c0.1-0.6 0.6-0.9 1.1-0.8 0.5 0.1 0.9 0.6 0.8 1.2l-1.5 7.8c0 0.4-0.4 0.7-0.8 0.7z"></path></g><g id="Layer"><path id="Layer" class="s5" d="m440.3 401.9c0 0-0.1 0-0.3 0-0.5-0.1-0.8-0.6-0.7-1.2l1.4-7.8c0.1-0.5 0.5-0.8 1.1-0.7 0.5 0.1 0.8 0.6 0.7 1.2l-1.4 7.8c0 0.4-0.4 0.7-0.8 0.7z"></path></g><g id="Layer"><path id="Layer" class="s5" d="m445.9 374.6c-0.2 0-0.3 0-0.6 0-0.3-0.1-0.5-0.4-0.6-0.7l-1.6-7.1c0.7 0.4 1.5 0.8 2.1 1.2l1.2 5.5c0.2 0.5-0.1 1-0.5 1.1z"></path></g><g id="Layer"><path id="Layer" class="s5" d="m467.3 434.2c-0.3 0-0.6-0.2-0.8-0.5l-4-6.7c-0.3-0.4-0.1-1.1 0.4-1.4 0.4-0.3 0.9-0.1 1.3 0.3l4 6.7c0.3 0.5 0.1 1.1-0.4 1.4-0.1 0-0.3 0.2-0.5 0.2z"></path></g><g id="Layer"><path id="Layer" class="s5" d="m445.2 499.5h-2l0.5-1.3c0.2-0.5 0.8-0.8 1.3-0.4 0.5 0.2 0.7 0.8 0.5 1.3z"></path></g><g id="Layer"><path id="Layer" class="s5" d="m464.8 485.5c-0.4 0-0.7-0.2-0.8-0.6l-2.8-7.5c-0.2-0.5 0-1.1 0.6-1.3 0.5-0.2 1.1 0 1.2 0.6l2.7 7.4c0.2 0.6 0 1.1-0.6 1.3-0.1 0.1-0.2 0.1-0.3 0.1z"></path></g></g><g id="Layer"><g id="Layer"><g id="Layer"><path id="Layer" class="s5" d="m468.3 462.2c-1.8-7.3-4-15.4-6.2-22.4-0.6-2.2-1.3-4.2-2-6.1v-0.1c-0.3-0.5-0.5-1.2-0.7-1.7q0-0.2 0-0.3c0-0.4 0.2-0.7 0.5-0.8 0.5-0.1 0.9 0.1 1.1 0.5 2.3 6.2 4.9 15 7.2 23.7 0 2.3 0.1 4.7 0.1 7.2z"></path></g></g></g><g id="Layer"><g id="Layer"><path id="Layer" class="s3" d="m396.4 336.6c-7.9 3.4-12.4-10.7-9.2-15.5 3.3-4.9 7.6 1 7.6 1z"></path><g id="Layer"><path id="Layer" class="s3" d="m390.3 330c-0.1 0-0.2 0-0.3-0.1-0.4-0.3-0.5-0.7-0.3-1 0 0 0.9-1.3 2.5-2.1 0.3-0.1 0.8 0 0.9 0.4 0.1 0.3 0 0.7-0.3 0.8-1.3 0.6-2 1.5-2 1.5-0.1 0.4-0.3 0.5-0.5 0.5z"></path></g></g><g id="Layer"><path id="Layer" class="s3" d="m439.6 322.1c0 0 4.3-5.9 7.6-1 3.2 4.8-1.3 18.9-9.2 15.5z"></path><g id="Layer"><path id="Layer" class="s3" d="m439.5 332c-0.3-0.1-0.5-0.5-0.4-0.8 1.4-5 6.4-7 6.6-7.1 0.3-0.1 0.7 0.1 0.8 0.5 0.1 0.3-0.1 0.7-0.4 0.8-0.1 0-4.7 1.9-5.8 6.2-0.1 0.3-0.4 0.5-0.7 0.5 0 0-0.1 0-0.1-0.1z"></path></g><g id="Layer"><g id="Layer"><path id="Layer" class="s3" d="m443.6 329.5c0 0-0.6-0.9-1.9-1.5-0.4-0.1-0.5-0.5-0.4-0.8 0.1-0.4 0.6-0.5 0.9-0.4 1.6 0.8 2.5 2.1 2.5 2.1 0.2 0.3 0.1 0.7-0.2 1-0.1 0.1-0.2 0.1-0.3 0.1-0.2 0-0.5-0.1-0.6-0.5z"></path></g></g></g><path id="Layer" class="s3" d="m427.9 348.6v14c0 0-4.2 7.2-9.8 7.7-5.6 0.6-10.7-6.1-10.7-6.1v-14.7z"></path><path id="Layer" class="s3" d="m427.9 348.6v6.3c-3.8 4.2-10.6 5.3-20.5 3.7v-9.1z"></path><path id="Layer" class="s3" d="m442.7 310.6c-0.2 5.7-0.7 12.8-1.8 18.5-0.2 1.4-0.5 2.7-0.9 3.9-0.2 0.6-0.4 1.4-0.6 2.2-3.4 10.9-11 26.6-30.4 19.4-8.1-3-12.4-11.8-14.6-21.3q-0.2-0.8-0.3-1.6c-0.1-0.3-0.1-0.8-0.3-1.1l-0.1-0.5c0-0.1 0-0.1 0-0.2-1.3-7.4-1.5-14.8-1.4-20.1 0.1-5.4 3-10.3 7.5-12.9 12.2-7.3 25.1-4.6 33.6-1.1 5.9 2.3 9.7 8.2 9.3 14.8z"></path><path id="Layer" fill-rule="evenodd" class="s6" d="m440.9 330.2q0 0.1 0 0c-0.1 0.5-0.9 3-1.6 6-3.3 10.4-11.1 25.6-30.4 18.7-8.2-3-12.5-11.4-14.6-20.6q-0.2-0.8-0.3-1.6c-0.2-0.4-0.2-0.7-0.3-1l-0.1-0.5c0-0.2 0-0.3 0-0.3l2.8-0.5c0.6 2.7 1.8 5.2 3.3 7.5 2.5-5.8 14.7-2 14.7-2q1.1 0.3 2.3 0.3c0.8 0 1.6-0.1 2.4-0.3 0 0 12.1-4 14.6 1.5 2.4-3.9 4.2-7.4 4.2-7.4zm-24 8.4c-13.9-1.8-11.7 5.6-11.7 5.6 1.5 1.4 2.9 2.4 3.9 3 3 1.6 5.9 2.2 8.1 2.1 2.1-0.1 2.7 0.3 8.1-2.6 0.9-0.5 1.8-1.3 2.8-2.1 0.2-1.6 2.5-8.5-11.2-6z"></path><path id="Layer" class="s7" d=""></path><path id="Layer" class="s7" d=""></path><path id="Layer" class="s7" d=""></path><path id="Layer" class="s7" d=""></path><path id="Layer" class="s7" d=""></path><path id="Layer" class="s7" d=""></path><path id="Layer" class="s6" d="m442.7 308.8c-0.2 6.5-0.7 14.7-1.8 21.3l-3-0.2c0 0 0.7-5.6 1.1-9.1 0.3-3.6 0.8-10.3-1.7-11.2-2.6-0.8-1-8.5-4.6-11.9-3.6-3.3-11.5-4.2-16.8-0.4-5.3 3.9-11.1-0.3-13.6 0.4-2.4 0.7-5.7 4.7-4.9 8.5 0.9 3.8-1.7 5.9-2.4 9.8-0.6 3.9 1.4 14.3 1.4 14.3l-2.8 0.6c-1.3-8.4-1.5-16.9-1.4-23 0.1-6.3 2.9-11.9 7.5-14.9 12.2-8.4 25.1-5.2 33.6-1.3 6 2.6 9.8 9.5 9.4 17.1z"></path></g></g><g id="Layer"><g id="Layer"><path id="Layer" class="s8" d="m331.1 381.9c0-4.8 3.9-8.7 8.7-8.7h153.9c4.8 0 8.7 3.9 8.7 8.7v78.7c0 4.8-3.9 8.7-8.7 8.7h-153.9c-4.8 0-8.7-3.9-8.7-8.7z"></path><path id="Layer" class="s9" d="m331.1 387.1c0-4.8 3.9-8.7 8.7-8.7h153.9c4.8 0 8.7 3.9 8.7 8.7v73.5c0 4.8-3.9 8.7-8.7 8.7h-153.9c-4.8 0-8.7-3.9-8.7-8.7z"></path><path id="Layer" class="s10" d="m403.5 469.2h26.5v30.3h-26.5z"></path><path id="Layer" class="s8" d="m417 435.7c-7.3 0-13.2-5.9-13.2-13.2 0-7.3 5.9-13.2 13.2-13.2 7.3 0 13.2 5.9 13.2 13.2 0 7.3-5.9 13.2-13.2 13.2z"></path><path id="Layer" class="s7" d="m382.9 495.9c0-3.9 3.2-7.1 7.2-7.1h54.1c3.8 0 7.1 3.1 7.1 7.1v3.6h-68.4z"></path></g></g><g id="Layer"><g id="Layer"><path id="Layer" class="s11" d="m464.4 115.8c0-2.9 2.3-5.2 5.2-5.2h187.9c2.9 0 5.2 2.3 5.2 5.2v135.7c0 2.9-2.3 5.2-5.2 5.2h-187.9c-2.9 0-5.2-2.3-5.2-5.2z"></path><path id="Layer" class="s12" d="m478.6 119.8c0.2-0.2 0.5-0.2 0.7-0.2h168.4c0.2 0 0.5 0.2 0.7 0.2 2.9 0.3 5.1 2.8 5.1 5.7v116.2c0 3.2-2.6 5.8-5.8 5.8h-168.4c-3.2 0-5.8-2.6-5.8-5.8v-116.2c0-2.9 2.2-5.4 5.1-5.7z"></path><g id="Layer"><g id="Layer"><path id="Layer" class="s13" d="m598.6 153.7c0-1.8 1.6-3.3 3.4-3.3h40c1.9 0 3.4 1.5 3.4 3.3 0 1.9-1.5 3.4-3.4 3.4h-40c-1.8 0-3.2-1.5-3.4-3.4z"></path><path id="Layer" class="s13" d="m598.6 167.5c0-1.9 1.6-3.4 3.4-3.4h40c1.9 0 3.4 1.5 3.4 3.4 0 1.8-1.5 3.3-3.4 3.3h-40c-1.8 0-3.2-1.5-3.4-3.3z"></path><path id="Layer" class="s13" d="m598.6 181.2c0-1.8 1.6-3.3 3.4-3.3h40c1.9 0 3.4 1.5 3.4 3.3 0 1.8-1.5 3.4-3.4 3.4h-40c-1.8 0-3.2-1.6-3.4-3.4z"></path><path id="Layer" class="s13" d="m598.6 194.9c0-1.8 1.6-3.3 3.4-3.3h40c1.9 0 3.4 1.5 3.4 3.3 0 1.9-1.5 3.4-3.4 3.4h-40c-1.8 0-3.2-1.5-3.4-3.4z"></path></g><g id="Layer"><path id="Layer" class="s13" d="m481 187.7c0-1.8 1.6-3.4 3.4-3.4h40c1.9 0 3.4 1.6 3.4 3.4 0 1.8-1.5 3.4-3.4 3.4h-40c-1.9 0-3.4-1.6-3.4-3.4z"></path><path id="Layer" class="s13" d="m481 201.4c0-1.8 1.6-3.3 3.4-3.3h40c1.9 0 3.4 1.5 3.4 3.3 0 1.9-1.5 3.4-3.4 3.4h-40c-1.9 0-3.4-1.5-3.4-3.4z"></path><path id="Layer" class="s13" d="m481 215.2c0-1.9 1.6-3.4 3.4-3.4h40c1.9 0 3.4 1.5 3.4 3.4 0 1.8-1.5 3.3-3.4 3.3h-40c-1.9 0-3.4-1.5-3.4-3.3z"></path><path id="Layer" class="s13" d="m481 228.9c0-1.8 1.6-3.3 3.4-3.3h40c1.9 0 3.4 1.5 3.4 3.3 0 1.9-1.5 3.4-3.4 3.4h-40c-1.9 0-3.4-1.5-3.4-3.4z"></path></g></g><g id="Layer"><path id="Layer" class="s13" d="m478.6 119.6h171c1.7 0.7 3.1 2.2 3.7 4 0.1 0.6 0.2 1.1 0.2 1.7v13.9h-180v-13.7c0-2.9 2.2-5.4 5.1-5.9z"></path><path id="Layer" class="s12" d="m508.6 127.5h105c1.3 0 2.4 0.9 2.6 2.2 0.2 1.5-1 2.9-2.5 2.9h-105.1c-1.4 0-2.6-1.2-2.6-2.6 0.1-1.3 1.3-2.5 2.6-2.5z"></path><path id="Layer" class="s14" d="m637.5 128.3c0-0.5 0.6-0.9 1.1-0.6l1.6 0.9 1.6 1c0.4 0.2 0.4 1 0 1.2l-1.6 1-1.6 0.9c-0.6 0.3-1.1-0.1-1.1-0.6v-2z"></path><path id="Layer" class="s14" d="m629 130.1v2c0 0.5-0.5 0.9-1 0.6l-1.7-0.9-1.6-1c-0.4-0.2-0.4-1 0-1.2l1.6-1 1.7-0.9c0.4-0.3 1 0.1 1 0.6z"></path></g></g><g id="Layer"><g id="Layer"><g id="Layer"><path id="Layer" class="s15" d="m621.8 247.5c-5.8-26-16.7-52.1-18.1-61.3-1.5-9.4 0.6-29.6 6.3-33.2 4 2.1 6.9 7.7 8.6 11.9 4.6 11.4 13.8 33.4 19.6 58.6 1.9 8 3.5 15.4 4.9 23.9h-21.3z"></path></g></g><g id="Layer"><g id="Layer"><path id="Layer" class="s15" d="m519.9 247.5c0-2.4 0.1-4.6 0.1-7 0.9-41 2.4-82.6 5.2-86.7 2.7-3.9 10.7-8.9 18.4-13.5 1-0.5 1.9-1.2 2.9-1.7 0.2-0.1 0.4-0.2 0.7-0.5 0.8-0.5 1.7-0.9 2.4-1.5 3.7-2.1 7-4.1 8.9-5.5v1.2c0 0 4.2 6 8.9 5.5 4.3-0.4 6.7-5.7 7.2-6.7 1.8 1.3 4.7 3 8.3 5 0.8 0.4 1.7 1 2.5 1.4 0.3 0.1 0.6 0.3 0.9 0.4q0.3 0.2 0.7 0.4c9.6 5.3 21.1 11.5 24.2 16.2 2.5 3.6 3.7 35.1 4.3 70 0 2.8 0.1 5.7 0.1 8.6 0 1.7 0 3.3 0.1 4.9 0 3.1 0.2 6.3 0.2 9.4z"></path></g><path id="Layer" class="s15" d="m538.4 152.3c-18.8-22.1 7.5-37.7 16.4-39.1 9-1.5 36.3-2.6 47.7 11 11.5 13.6-4.9 32.9-4.9 32.9 0 0-40.4 17.5-59.2-4.8z"></path><g id="Layer"><g id="Layer"><path id="Layer" class="s16" d="m594.2 230.8c-7.7 6-18.1 11.2-31.6 13-0.5 0.2-1-0.3-1-0.8 0-0.5 0.4-0.8 0.8-0.9 13.3-1.8 23.4-6.9 30.8-12.7 0.6-0.5 1.4 0 1.4 0.6-0.1 0.3-0.2 0.5-0.4 0.8z"></path></g><g id="Layer"><path id="Layer" class="s16" d="m590.6 219.7c0 0.2 0 0.3-0.1 0.5-0.4 0.7-0.9 1.6-1.5 2.3-3.2 4.6-9.2 10.6-19.8 13.5-0.1 0-0.1 0-0.2 0-0.3 0-0.6-0.3-0.8-0.6-0.1-0.4 0.2-0.9 0.6-1 11.5-3.1 17.4-9.9 20.4-15.1 0.4-0.8 1.4-0.4 1.4 0.4z"></path></g><g id="Layer"><path id="Layer" class="s16" d="m556.2 152.4c3.5 3.5 9.6 8.5 17.6 11.9 0.3 0.1 0.5 0.5 0.5 0.8 0 0.5-0.5 1-1.1 0.7-4.4-1.9-8.2-4.2-11.1-6.3-2.9-2.1-5.2-4.3-6.9-5.9-0.2-0.1-0.3-0.3-0.3-0.5 0-0.8 0.9-1.1 1.3-0.7z"></path></g></g><g id="Layer"><path id="Layer" class="s12" d="m579.3 226.2c-0.5-0.1-0.8-0.3-0.7-0.5 0.8-33.6 0-67.4 0-67.8 0-0.4 0.2-0.7 0.7-0.7 0.3 0 0.6 0.2 0.6 0.6 0 0.4 0.8 34.3 0 67.8 0 0.3-0.3 0.6-0.6 0.6z"></path></g><g id="Layer"><path id="Layer" class="s12" d="m552.3 225.3c-0.7-33.4 0-67.4 0-67.7 0-0.3 0.4-0.6 0.7-0.6 0.3 0.1 0.6 0.3 0.6 0.7 0 0.5-0.7 34.3 0 67.8 0.1 0.4-0.2 0.7-0.6 0.7-0.4 0-0.8-0.3-0.7-0.9z"></path></g></g><g id="Layer"><path id="Layer" class="s7" d="m567.4 63.4c14.7 0 23.4 11.1 23.4 25.7 0 14.6-10.3 25.6-24.9 25.6-14.6 0-23.7-10.1-23.7-24.8 0-14.7 7.7-26.6 25.2-26.5z"></path><path id="Layer" class="s17" d="m544.6 97.8c-8.1 2.3-9.7-13.7-7.3-16 2.4-2.3 4-4.8 1.6-8.6-2.5-3.6-0.1-11.8 4.9-12.7 5.1-1 6.2-0.1 8.9-3.6 2.6-3.5 12-4.7 16.6 0 4.7 4.6 11.7-1 16.6 2.1 4.9 3 1.5 8.7 7 11.4 5.5 2.7-0.7 6.8 0 12.5 0.8 5.6 5.1 2.3 3.3 8.7-1.9 6.4-7.3 7.9-7.3 7.9 0 0-36.2-3.9-44.3-1.7z"></path><g id="Layer"><g id="Layer"><path id="Layer" class="s18" d="m547 109.7c-7.3 3.2-11.6-10.1-8.6-14.5 3-4.4 7.1 1 7.1 1z"></path></g></g><g id="Layer"><path id="Layer" class="s18" d="m587.5 96.2c0 0 4.1-5.4 7.1-1 3.1 4.4-1.3 17.7-8.6 14.5z"></path></g><path id="Layer" class="s18" d="m576.6 121.1v13.2c0 0-3.9 6.7-9.3 7.1-5.3 0.4-10.1-5.8-10.1-5.8v-13.7z"></path><path id="Layer" class="s19" d="m576.6 121.1v5.8c-3.6 4-10 5-19.4 3.6v-8.6z"></path><path id="Layer" class="s18" d="m543.1 86.2c0.2-4.9 2.9-9.3 7.1-11.7 11.4-6.5 23.6-4 31.6-0.9 5.5 2.1 9.1 7.5 8.7 13.5-0.1 2.8-0.3 6-0.6 9.2-0.3 2.6-0.7 5.2-1.1 7.4-0.3 1.3-0.5 2.5-0.9 3.6-2.8 9.8-9.7 26.4-29.2 19.5-8.6-3-12.6-12.7-14.4-22.4-0.5-2.9-0.8-5.9-1-8.7-0.3-3.4-0.3-6.7-0.2-9.5z"></path><path id="Layer" class="s17" d="m589.8 96.3h-2.8c0.3-2.8 0.7-7.9-1.7-8.6-7.3-2.2 2.2-7.4-1.1-10.1-3.4-2.6-11.7-1.6-17.5-1.8-5.8-0.2-15.1-0.1-17.4 0.5-2.3 0.5-1.1 4.3-0.2 7.2 0.9 2.9-2.8 6.2-3.4 9.2-0.2 0.9-0.1 2.2 0 3.6h-2.3c-0.4-3.7-0.4-7.2-0.3-10 0.2-4.8 2.8-9.3 7.1-11.7 11.4-6.5 23.6-4.1 31.6-0.9 5.5 2.1 9.1 7.5 8.7 13.5-0.2 2.7-0.4 5.9-0.7 9.1z"></path></g><g id="Layer"><path id="Layer" class="s15" d="m525 185.4c0 0-30 30.5-48.1 33.7-18.2 3.2-43.3-48.3-43.3-48.3l11.3-5.9c3.5 4.3 6.2 7.1 14.8 17.5 7.6 9.1 17.1 15.1 17.1 15.1 13.1-11.9 47.6-40.4 47.6-40.4z"></path><path id="Layer" class="s18" d="m419.3 144.9c1.1-0.2 3.4 3.2 5.4 6.4 0.1-0.1 0.2-0.1 0.3-0.2-2.2-4.6-5.7-12.8-3.2-12.7 1.6 0.1 4.8 7 6.7 11.2 0.2-0.1 0.4-0.2 0.6-0.2-2-5.1-5.9-14.9-3-14.7 1.8 0.2 5.3 8.9 6.9 13.4 0.2-0.1 0.4-0.1 0.7-0.2-1.7-4.3-4.5-12.8-1.7-12.5 2.6 0.4 6.2 13.6 6.2 13.6l2 4.7c0 0 1.7-0.4 1.9-4.3 0.2-3.9 2.4-6.2 3.2-1.5 1 5.2 0.3 10 1.1 13.6 0.4 1.6-0.1 3.4-0.7 4.7-0.8 1.6-1.9 2.9-3.4 3.9-3.8 2.7-9.1 1.9-12-1.8-3.3-4.2-7.1-9.7-8.2-14.4-2.3-3.9-4.8-8.9-2.8-9z"></path></g></g></g><g id="Layer"><g id="Layer"><path id="Layer" class="s8" d="m173.6 98.2c0-2.8 2.3-5.2 5.2-5.2h221.5c2.9 0 5.2 2.4 5.2 5.2v160.7c0 2.9-2.3 5.2-5.2 5.2h-221.5c-2.9 0-5.2-2.3-5.2-5.2z"></path><path id="Layer" class="s12" d="m184.4 108c0.5-1.9 1.9-3.3 3.7-3.9q0.9-0.4 1.9-0.4h199q1.1 0 1.9 0.4c1.8 0.6 3.2 2 3.7 3.9 0.1 0.5 0.2 1 0.2 1.6v138c0 3.3-2.6 5.9-5.8 5.9h-199c-3.2 0-5.8-2.6-5.8-5.9v-138c0-0.6 0.1-1.1 0.2-1.6z"></path><path id="Layer" class="s13" d="m196.9 215.8c0-2.8 2.4-5.2 5.2-5.2h177.5c2.8 0 5.2 2.4 5.2 5.2v4.3c0 2.9-2.4 5.2-5.2 5.2h-177.5c-2.8 0-5.2-2.3-5.2-5.2z"></path><g id="Layer"><g id="Layer"><path id="Layer" class="s13" d="m338.1 138c0-1.8 1.5-3.3 3.4-3.3h40c1.9 0 3.4 1.5 3.4 3.3 0 1.9-1.5 3.4-3.4 3.4h-40c-1.9 0-3.4-1.5-3.4-3.4z"></path><path id="Layer" class="s13" d="m338.1 151.8c0-1.9 1.5-3.4 3.4-3.4h40c1.9 0 3.4 1.5 3.4 3.4 0 1.8-1.5 3.3-3.4 3.3h-40c-1.9 0-3.4-1.5-3.4-3.3z"></path><path id="Layer" class="s13" d="m338.1 165.5c0-1.8 1.5-3.3 3.4-3.3h40c1.9 0 3.4 1.5 3.4 3.3 0 1.9-1.5 3.4-3.4 3.4h-40c-1.9 0-3.4-1.5-3.4-3.4z"></path><path id="Layer" class="s13" d="m338.1 179.3c0-1.9 1.5-3.4 3.4-3.4h40c1.9 0 3.4 1.5 3.4 3.4 0 1.8-1.5 3.3-3.4 3.3h-40c-1.9 0-3.4-1.5-3.4-3.3z"></path></g></g><g id="Layer"><g id="Layer"><path id="Layer" class="s13" d="m196.8 138c0-1.8 1.5-3.3 3.4-3.3h40.1c1.9 0 3.4 1.5 3.4 3.3 0 1.9-1.5 3.4-3.4 3.4h-40.1c-1.9 0-3.3-1.5-3.4-3.4z"></path><path id="Layer" class="s13" d="m196.8 151.8c0-1.9 1.5-3.4 3.4-3.4h40.1c1.9 0 3.4 1.5 3.4 3.4 0 1.8-1.5 3.3-3.4 3.3h-40.1c-1.9 0-3.3-1.5-3.4-3.3z"></path><path id="Layer" class="s13" d="m196.8 165.5c0-1.8 1.5-3.3 3.4-3.3h40.1c1.9 0 3.4 1.5 3.4 3.3 0 1.9-1.5 3.4-3.4 3.4h-40.1c-1.9 0-3.3-1.5-3.4-3.4z"></path><path id="Layer" class="s13" d="m196.8 179.3c0-1.9 1.5-3.4 3.4-3.4h40.1c1.9 0 3.4 1.5 3.4 3.4 0 1.8-1.5 3.3-3.4 3.3h-40.1c-1.9 0-3.3-1.5-3.4-3.3z"></path></g></g><g id="Layer"><path id="Layer" class="s13" d="m184.4 107.7c0.5-1.9 1.9-3.3 3.7-4h202.8c1.8 0.7 3.2 2.2 3.7 4 0.1 0.6 0.2 1.1 0.2 1.7v13.9h-210.6v-13.9c0-0.7 0.1-1.2 0.2-1.7z"></path><path id="Layer" class="s12" d="m206.4 111.5h148.7c1.4 0 2.6 1.2 2.6 2.6 0 1.4-1.2 2.6-2.6 2.6h-148.7c-1.3 0-2.3-1.1-2.3-2.2v-0.7c0-1.2 1-2.2 2.3-2.3z"></path><path id="Layer" class="s14" d="m378.8 112.3c0-0.6 0.7-0.9 1.1-0.7l1.6 1 1.6 1c0.5 0.2 0.5 1 0 1.2l-1.6 1-1.6 0.9c-0.6 0.2-1.1-0.1-1.1-0.6v-2z"></path><path id="Layer" class="s14" d="m370.3 114.1v2c0 0.5-0.6 0.8-1.1 0.6l-1.6-0.9-1.7-1c-0.4-0.2-0.4-1 0-1.2l1.7-1 1.6-1c0.4-0.2 1.1 0.1 1.1 0.7z"></path></g></g><g id="Layer"><path id="Layer" class="s20" d="m288 41c0 0 23.8-2.4 30.1 32.7 6.4 35 10.6 57 9.2 75.6-1.4 18.6-62.5 13.6-72 4.3-9.6-9.3 0.8-71.8 3.2-88.5 2.4-16.6 20-25.7 29.5-24.1z"></path><g id="Layer"><path id="Layer" class="s21" d="m325.6 209c-0.1 2.2-0.2 4.2-0.3 6.4-0.6 14.7 1 26.6 2.9 38h-82.4c1.9-11.3 3.5-23.3 3-38-0.1-4.5-0.5-9.1-0.7-13.5-1.1-15.9-2.8-30.4-3.9-41.5-1.2-11.1-1.7-18.7-0.4-20.4 1.2-1.5 3.1-3 5.4-4.7 3.6-2.5 8.2-4.9 12.8-7.4q1.3-0.7 2.6-1.3c5.3-2.7 10.1-5.2 12.9-7.1 3.5 1.6 6.2 2.3 9.2 2.3 0.1 0 0.3 0 0.3 0 0.1 0 0.2 0 0.2 0 2.9 0 5.7-0.9 9.2-2.3 2.9 2 8.4 4.8 14.1 7.7 1.1 0.6 2.1 1.1 3.2 1.6 2.9 1.6 5.7 3.2 8.3 4.8 1.1 0.7 2.2 1.3 3.1 2.1 2.5 1.7 4.5 3.3 5.7 4.8 2.7 3.5-2.8 30.3-5 63.1 0 1.7-0.1 3.6-0.2 5.4z"></path><g id="Layer"><path id="Layer" class="s22" d="m256.3 247.5c0-0.4 0.5-0.8 0.9-0.8 16.9-0.1 31.4-7.8 40.6-14.3 10-7.1 16-14.1 16.1-14.2 0.3-0.3 0.9-0.4 1.2-0.1 0.3 0.3 0.4 0.9 0.1 1.2 0 0.1-6.2 7.3-16.3 14.5-9.3 6.6-24.2 14.5-41.6 14.6-0.5 0-1-0.4-1-0.9z"></path></g><g id="Layer"><path id="Layer" class="s22" d="m265 238.9c-0.4 0-0.9-0.4-0.9-0.8 0-0.4 0.4-0.9 0.8-0.9 15.7-1.5 31.1-14.8 31.3-14.9 0.3-0.3 0.8-0.2 1.1 0.1 0.4 0.4 0.3 0.9-0.1 1.2-0.5 0.4-13.6 11.8-28.4 14.7-1.2 0.2-2.5 0.5-3.8 0.6z"></path></g><g id="Layer"><path id="Layer" class="s22" d="m290.5 161.7c-21.9-4.2-28.5-18-28.8-18.7-0.2-0.4 0-0.8 0.5-1.1 0.4-0.2 0.8 0 1.1 0.5 0 0.1 6.3 13.7 27.5 17.7 0.5 0.1 0.8 0.6 0.7 1-0.1 0.3-0.4 0.6-0.9 0.6z"></path></g><path id="Layer" class="s3" d="m277.8 119.5c3.4 1.4 6.2 2.3 9.2 2.3 0.1 0 0.1 0 0.2 0 0.1 0 0.1 0 0.2 0 3 0 5.7-0.7 9.2-2.3 2.9 2 8.4 4.7 14.2 7.7-4.4 6.2-10.8 12.9-21 14.6-11.3 2-20-6.7-25-15.2 5.2-2.7 10.1-5.2 13-7.1z"></path></g><g id="Layer"><g id="Layer"><path id="Layer" class="s3" d="m308.2 81.6c0 0 5.2-6 8-1.8 2.8 4.1-1.2 16.9-8.1 14z"></path></g><g id="Layer"><path id="Layer" class="s3" d="m266.9 93.8c-6.9 2.9-10.9-9.9-8.1-14 2.8-4.2 8 1.8 8 1.8z"></path></g><g id="Layer"><path id="Layer" class="s3" d="m296.8 107.3v13.6c0 0-4.7 6.2-10 5.8-5.3-0.5-9.1-7.2-9.1-7.2v-13.1z"></path><path id="Layer" class="s23" d="m296.8 107.3v9c-9.3 1.3-15.6-0.1-19.1-4v-5.9z"></path><path id="Layer" class="s3" d="m272.7 59.3c7.9-3.2 20-5.5 31.3 1 4.3 2.3 6.9 6.8 7 11.6 0.1 4.8-0.1 11.4-1.3 18-1.9 9.7-5.8 19.3-14.3 22.3-19.4 6.9-26.3-9.8-29-19.4-0.3-1.1-0.7-2.3-0.9-3.6-0.9-5-1.5-11.4-1.7-16.5-0.3-5.8 3.2-11.3 8.9-13.4z"></path></g><path id="Layer" class="s20" d="m270.6 47.9c4.5-2.7 17.7-6.3 30.1 0.4 4.4 2.4 7.7 6.6 9.1 11.6 1 3.5 2.1 7.6 2.6 10.4 0 0.1 0.1 0.9 0.2 1.9 0.2 2 0.5 5.4 0.2 7.8-1.2 9.6-3.2 13.5-3.8 9.2-0.4-3.1 1.4-11.3 1.1-15.2-2.9-0.1-7.7-1.5-7.7-1.5l-3.1-9-1.3 9c0 0-6 1.5-10.6-0.8l-1.5-8.3-2.5 8.6c0 0-7.4 1.8-10.5 0.7l-0.8-8.7-2 8.8c0 0-2.6 0.3-4.4 0.4 0.4 6 2.5 16.2 1.2 16.5-0.9 0.2-3.1-3.2-3.9-12.1-0.1-1.7-0.2-3.3-0.2-4.7-0.7-0.2-1.3-0.6-1.5-1.2 0 0-0.4-18.2 9.3-23.8z"></path><path id="Layer" class="s7" d="m312.3 70.2c0 0.1 0.1 0.9 0.2 1.8 0-0.4-0.1-1-0.2-1.8z"></path></g><g id="Layer"><path id="Layer" class="s21" d="m244 140c3.8 4.9 15.1 11.7 4.8 47.2-0.1 0.4-0.1 0.8-0.3 1.3 0.4 0.1 0.7 0.1 1 0.2 19.6 4.1 58.8-0.1 58.8-0.1l0.7 1.9 2.2 5.6v0.1c-7.2 3.6-14.7 7.1-22.3 9.9-2.3 0.9-4.5 1.7-6.8 2.5-0.4 0.2-0.8 0.3-1.2 0.4l-2.9 1c-0.1 0.1-0.1 0.1-0.2 0.1h-0.1c-21.1 6.4-39.8 7.2-43.9-4.6-7.8-22.3 10.1-65.4 10.2-65.5z"></path><g id="Layer"><path id="Layer" class="s21" d="m239.8 193.4c1.7-3.5 6.9-5.5 8.9-6.1-0.2 0.4-0.2 0.8-0.3 1.3 0.4 0.1 0.7 0.1 1 0.2-1.6 0.5-6.6 2.4-8.1 5.4-0.1 0.2-0.4 0.4-0.8 0.4-0.1 0-0.2 0-0.3-0.1-0.3-0.2-0.5-0.6-0.4-1.1z"></path></g><g id="Layer"><path id="Layer" class="s22" d="m268.1 189.8c-0.4-0.3-0.6-0.7-0.4-1.1 0.2-0.5 0.6-0.7 1.1-0.5 11.6 4.7 40.9 2.6 41.2 2.6 0.4 0 0.9 0.4 0.9 0.8 0 0.4-0.4 0.9-0.8 0.9-0.5 0.1-7 0.5-15 0.5-9.3 0-20.6-0.5-27-3.2z"></path></g><g id="Layer"><path id="Layer" class="s22" d="m274.9 209c-4.4-1.3-8.3-2.4-10.9-3.2-5.4-1.8-9.8-7.1-11.8-11.6-0.2-0.4 0-0.9 0.5-1.1 0.4-0.2 0.8 0 1 0.4 1.9 4.3 5.9 9.2 10.8 10.8 3.5 1 9.6 2.9 16.3 4.7-1.9 0.7-3.9 0.7-5.9 0z"></path></g><g id="Layer"><path id="Layer" class="s21" d="m268.5 191.4c0 0 33.4 4.3 51.7 0.4 0.2 0 0.3-0.1 0.4-0.1l-0.2-1.9v-0.4l-0.1-0.7 1.3-28.3c0 0 5-12.6 9.4-20 0 0 15 33.1 10.9 69.9 0 0-18.6 13.3-79.1-7z"></path><g id="Layer"><path id="Layer" class="s22" d="m320.5 191.7l-0.2-1.9c3.7 3 7.1 6.4 10.3 10.6 0.3 0.4 0.2 0.8-0.2 1.1-0.4 0.4-0.8 0.3-1.1-0.1-2.7-3.6-5.9-6.8-9.1-9.5 0.1-0.1 0.2-0.1 0.3-0.2z"></path></g><path id="Layer" class="s3" d="m262.8 203.4c-7.9-2.8-8.7-12.3-14.3-14.7l3.1-11.1c10.1-1.4 16.9 13.9 16.9 13.9z"></path></g><path id="Layer" class="s3" d="m308.3 188.7c0 0 4.2-10 15.3-12.8 11.2-2.8 18.2 2.4 19 4.3 0.7 2-4.3 0.1-4.3 0.1 0 0 3.3 0.9 5.1 3.9 1.9 3.1-4.4-0.2-4.4-0.2 0 0 4.5 2 5.1 3.9 0.5 1.9-5.4-1.3-6.5-1.2 0 0 5.4 2.2 5.3 4-0.1 1.9-6.2-1.2-10.7-0.9-4.6 0.2-11.6 2.1-11.6 2.1-3.8 0.8-7.4 1.2-10.5 1.4z"></path></g></g></g><g id="Layer"><g id="Layer"><path id="Layer" class="s8" d="m508 276.4c0-2.9 2.3-5.2 5.2-5.2h150c2.9 0 5.2 2.3 5.2 5.2v207.2c0 2.9-2.3 5.2-5.2 5.2h-150c-2.9 0-5.2-2.3-5.2-5.2z"></path><path id="Layer" class="s12" d="m524.2 281.3h128c3.5 0 6.2 2.8 6.2 6.1v185.3c0 3.4-2.7 6.1-6.2 6.1h-128c-2.1 0-4.1-1-5.2-2.8-0.6-1-1-2.1-1-3.3v-185.3c0-3.4 2.9-6.1 6.2-6.1z"></path><g id="Layer"><g id="Layer"><path id="Layer" class="s13" d="m606.2 318.8c0-1.8 1.5-3.3 3.4-3.3h40c1.8 0 3.4 1.5 3.4 3.3 0 1.9-1.6 3.4-3.4 3.4h-40c-1.9 0-3.4-1.5-3.4-3.4z"></path><path id="Layer" class="s13" d="m606.2 332.6c0-1.9 1.5-3.4 3.4-3.4h40c1.8 0 3.4 1.5 3.4 3.4 0 1.8-1.6 3.3-3.4 3.3h-40c-1.9 0-3.4-1.5-3.4-3.3z"></path><path id="Layer" class="s13" d="m606.2 346.3c0-1.8 1.5-3.4 3.4-3.4h40c1.8 0 3.4 1.6 3.4 3.4 0 1.8-1.6 3.4-3.4 3.4h-40c-1.9 0-3.4-1.6-3.4-3.4z"></path><path id="Layer" class="s13" d="m606.2 360c0-1.8 1.5-3.3 3.4-3.3h40c1.8 0 3.4 1.5 3.4 3.3 0 1.9-1.6 3.4-3.4 3.4h-40c-1.9 0-3.4-1.5-3.4-3.4z"></path></g><g id="Layer"><path id="Layer" class="s13" d="m523 352.8c0-1.8 1.5-3.4 3.4-3.4h40c1.8 0 3.4 1.6 3.4 3.4 0 1.8-1.6 3.3-3.4 3.3h-40c-1.9 0-3.3-1.4-3.4-3.3z"></path><path id="Layer" class="s13" d="m523 366.5c0-1.8 1.5-3.3 3.4-3.3h40c1.8 0 3.4 1.5 3.4 3.3 0 1.9-1.6 3.4-3.4 3.4h-40c-1.9 0-3.3-1.4-3.4-3.4z"></path><path id="Layer" class="s13" d="m523 380.3c0-1.9 1.5-3.4 3.4-3.4h40c1.8 0 3.4 1.5 3.4 3.4 0 1.8-1.6 3.3-3.4 3.3h-40c-1.9 0-3.3-1.4-3.4-3.3z"></path><path id="Layer" class="s13" d="m523 394c0-1.8 1.5-3.3 3.4-3.3h40c1.8 0 3.4 1.5 3.4 3.3 0 1.9-1.6 3.4-3.4 3.4h-40c-1.9 0-3.3-1.4-3.4-3.4z"></path></g></g><g id="Layer"><path id="Layer" class="s13" d="m524.2 281.3h128c3.5 0 6.2 2.8 6.2 6.1v14.5h-140.4v-14.5c0-3.4 2.9-6.1 6.2-6.1z"></path><path id="Layer" class="s12" d="m535.7 289.5h80.5c1.3 0 2.6 1 2.8 2.3 0.2 1.6-1.1 3.1-2.7 3.1h-80.6c-1.5 0-2.7-1.2-2.7-2.7 0-1.5 1.2-2.7 2.7-2.7z"></path><path id="Layer" class="s14" d="m643.9 290.4c0-0.6 0.5-1 1.1-0.7l1.7 1 1.7 1c0.6 0.3 0.6 0.9 0 1.3l-1.7 0.9-1.7 1c-0.5 0.3-1.1-0.1-1.1-0.6v-2.1z"></path><path id="Layer" class="s14" d="m634.9 292.2v2.1c0 0.5-0.7 0.9-1.1 0.6l-1.7-1-1.8-0.9c-0.5-0.4-0.5-1 0-1.3l1.8-1 1.7-1c0.6-0.3 1.1 0.1 1.1 0.7z"></path></g></g><g id="Layer"><path id="Layer" class="s24" d="m629 354.5c3.9 2.2 6.4 7.1 8.1 11.2 4.3 11.2 12.7 32.6 17.9 57.3 1.3 5.7 2.3 11 3.3 16.7v32.9c0 3.4-2.7 6.1-6.2 6.1h-8.7c-0.8-5.7-1.8-12.5-2.4-18.4-3.4-29.4-17.3-63.6-18.7-74.2-1.1-9.2 1.3-28 6.7-31.6z"></path><path id="Layer" class="s24" d="m519.6 456.1c1.3-13 3-22.3 5.3-33 5.2-24.6 13.7-46.1 17.9-57.3 1.5-4.1 4.1-9 8-11.2 5.7 3.4 8.1 22.3 6.8 31.5-1.4 10.5-15.2 44.7-18.6 74.2-0.6 5.9-1.8 12.8-2.7 18.4h-12.1c-2.1 0-4.1-1.1-5.2-2.8 0-7.3 0.1-15.1 0.6-19.8z"></path><g id="Layer"><g id="Layer"><g id="Layer"><g id="Layer"><g id="Layer"><path id="Layer" class="s24" d="m542.2 478.7c0-1.4 0-2.9 0-4.3q0-1 0-1.9c0.1-5.8 0.2-11.8 0.2-17.9 0-3 0.1-6.1 0.2-9.1 0-0.6 0-1.4 0-2.2 0-0.7 0-1.5 0-2.1 0-1.3 0-2.6 0.1-3.9 0-1.4 0.1-2.9 0.1-4.3 0-0.4 0-0.7 0-0.9 0-0.9 0-1.6 0.1-2.5 0-0.2 0-0.3 0-0.5 0-1.4 0.1-3 0.1-4.4 0.9-33.7 2.4-63.8 4.8-67.3 1.7-2.4 5.6-5.5 10.3-8.5 0.5-0.3 1.2-0.8 1.7-1.1 2-1.2 18.2-6.7 20.2-7.9l17.1-1.2c0.1 0.1 16.5 5.5 16.6 5.7 0.7 0.4 1.4 0.8 2.2 1.1 6 3.5 12 7.2 15.4 10.4q0.8 0.7 1.3 1.3c0.3 0.4 0.6 0.7 0.8 1 0.2 0.3 0.4 0.9 0.5 1.5 2 7.2 3 34.5 3.6 65 0 1.4 0 2.9 0.1 4.3v0.1c0 1.3 0 2.6 0.1 3.9 0 0.2 0 0.4 0 0.5q0 1.1 0 2.3c0 0.4 0 1 0 1.4q0 0.8 0 1.6c0 0.7 0 1.4 0 2.2 0 0.1 0 0.1 0 0.2 0 0.3 0 0.5 0 0.9 0 0.2 0 0.5 0 0.7 0 0.9 0 1.8 0 2.7 0 0.6 0 1.2 0 1.7 0 1.3 0 2.6 0 3.8 0.1 9.6 0.1 18.9 0.2 27.6z"></path></g></g></g><g id="Layer"><path id="Layer" class="s25" d="m637.8 429v0.1h-94.8c0-1.4 0.1-3 0.1-4.4h94.7q-0.1 2.2 0 4.3z"></path><path id="Layer" class="s25" d="m637.9 437.3h-95.1c0-1.4 0.1-2.9 0.1-4.3h95c0 0.2 0 0.4 0 0.5q0 1.1 0 2.3c0 0.5 0 1 0 1.5z"></path><path id="Layer" class="s25" d="m638 445.5h-95.4c0-0.6 0-1.4 0-2.2 0-0.7 0-1.5 0-2.1h95.2c0 0.3 0 0.5 0 0.9 0 0.2 0 0.5 0 0.7 0.2 1 0.2 1.8 0.2 2.7z"></path></g><g id="Layer"><path id="Layer" class="s25" d="m621.2 401.6c0-0.9 1-1.2 1.6-0.6 6.8 9.1 11 19 13.5 26.8 0.6 2 1.2 3.9 1.6 5.8q0 1.1 0 2.3c0 1 0 2 0 3 0 0.7 0 1.4 0 2.2 0 0.3 0 0.6 0 1.1 0 0.2 0 0.5 0 0.7-0.6-3.9-1.7-9-3.4-14.6-2.4-7.7-6.5-17.3-13.2-26.1-0.1-0.3-0.1-0.4-0.1-0.6z"></path></g><g id="Layer"><path id="Layer" class="s25" d="m580.1 478.7c-2.4-1.4-4.6-2.9-6.7-4.3-10.8-7.6-17.3-15.4-17.4-15.4-0.3-0.4-0.2-0.9 0.1-1.3 0.4-0.3 1-0.2 1.3 0.1 0.1 0.2 6.5 7.7 17.1 15.2 2.7 1.8 5.8 3.9 9.2 5.7z"></path></g><g id="Layer"><path id="Layer" class="s25" d="m584.3 375.8c-0.5 0-0.8-0.3-0.9-0.7-0.1-0.6 0.2-1 0.8-1.1 22.5-4.3 29.3-18.7 29.3-18.9 0.2-0.5 0.7-0.7 1.2-0.5 0.4 0.3 0.6 0.8 0.4 1.2-0.3 0.7-7.3 15.5-30.6 19.9-0.1 0.1-0.2 0.1-0.2 0.1z"></path></g></g><g id="Layer"><path id="Layer" class="s26" d="m569.5 280.4c-4-1.1-5.4-5.2-6-8-1.1-4.4 1.3-8.8 5.7-7.9 3.2 0.7 6.6 0.2 9.8 0.8 5.8 0.9 18.9-2.8 23.3 1.2 4.5 4 8.5 3 11 6.5 2.4 3.4 0.8 13.7 0.8 13.7-5.9-13.3-44.3-6.3-44.6-6.3z"></path><path id="Layer" class="s26" d="m615 294.9c0 14.8-9.2 25.1-24 25.1-14.9 0-25.2-11-25.2-25.8 0-14.9 8.7-26.1 23.5-26.1 17.9 0 25.7 12 25.7 26.8z"></path><g id="Layer"><path id="Layer" class="s27" d="m611.6 301.3c0 0 4.1-5.5 7.3-1 3 4.6-1.3 18-8.8 14.7z"></path></g><g id="Layer"><path id="Layer" class="s27" d="m570.6 315c-7.4 3.3-11.8-10.1-8.7-14.7 3.1-4.5 7.2 1 7.2 1z"></path></g><path id="Layer" class="s27" d="m599.8 327.4v13.8c0 0-4.7 6.3-10.1 5.9-5.4-0.5-9.4-7.3-9.4-7.3v-13.4z"></path><path id="Layer" class="s27" d="m599.7 327.3v8.6c-9.4 1.4-15.9 0.5-19.4-3.6v-5.9z"></path><path id="Layer" class="s27" d="m613.8 301.1c0 0.7-0.1 1.5-0.2 2.4-0.2 1.9-0.5 4-0.9 6 0 0.1 0 0.1 0 0.2-1.8 9.9-5.8 19.5-14.5 22.6-19.7 7.1-26.7-9.8-29.5-19.6-0.3-1.1-0.6-2.3-0.9-3.6v-0.1c-0.2-1.5-0.5-3.1-0.7-4.7-0.2-1.2-0.4-2.4-0.5-3.5-0.3-3-0.4-5.9-0.5-8.6-0.3-5.9 3.2-11.5 8.9-13.6 8.1-3.2 20.3-5.5 31.9 1.1 4.3 2.3 7 6.9 7 11.9 0.2 2.6 0.2 5.9-0.1 9.5z"></path><path id="Layer" class="s26" d="m566.3 292c-0.3-6 3.2-11.5 8.9-13.6 8-3.1 20.3-5.6 31.9 1 4.2 2.5 6.9 7 7 11.9 0.1 2.9 0.1 6.3-0.2 10.1h-2.4c0.1-1.4 0.2-2.7 0-3.6-0.6-3-4.3-6.3-3.4-9.3 0.8-3 2-6.8-0.3-7.3-2.2-0.6-11.7-0.7-17.6-0.5-5.8 0.3-14.3-0.9-17.6 1.8-3.4 2.7 0.7 4.9-1.2 10.2-0.9 2.3-2 5.8-1.6 8.7h-3c-0.3-3.1-0.5-6.4-0.5-9.4z"></path></g></g></g></g><g id="Layer"><path id="Layer" class="s11" d="m166.8 288.6c0-2.8 2.3-5.2 5.2-5.2h140.9c2.9 0 5.2 2.4 5.2 5.2v195c0 2.9-2.3 5.2-5.2 5.2h-140.9c-2.9 0-5.2-2.3-5.2-5.2z"></path><path id="Layer" class="s12" d="m176.2 298.4c0-3 2.4-5.4 5.4-5.4h121.6c3 0 5.4 2.4 5.4 5.4v175.6c0 3-2.4 5.4-5.4 5.4h-121.6c-3 0-5.4-2.4-5.4-5.4z"></path><g id="Layer"><g id="Layer"><path id="Layer" class="s13" d="m225.6 329.8h-40.1c-1.9 0-3.4-1.6-3.4-3.4 0-1.8 1.5-3.4 3.4-3.4h40.1c1.9 0 3.4 1.6 3.4 3.4-0.1 1.9-1.5 3.4-3.4 3.4z"></path><path id="Layer" class="s13" d="m225.6 343.5h-40.1c-1.9 0-3.4-1.5-3.4-3.4 0-1.8 1.5-3.3 3.4-3.3h40.1c1.9 0 3.4 1.5 3.4 3.3-0.1 2-1.5 3.4-3.4 3.4z"></path><path id="Layer" class="s13" d="m225.6 357.2h-40.1c-1.9 0-3.4-1.5-3.4-3.3 0-1.9 1.5-3.4 3.4-3.4h40.1c1.9 0 3.4 1.5 3.4 3.4-0.1 1.9-1.5 3.3-3.4 3.3z"></path><path id="Layer" class="s13" d="m225.6 371h-40.1c-1.9 0-3.4-1.5-3.4-3.4 0-1.8 1.5-3.3 3.4-3.3h40.1c1.9 0 3.4 1.5 3.4 3.3-0.1 2-1.5 3.4-3.4 3.4z"></path></g><g id="Layer"><path id="Layer" class="s13" d="m297.6 371.7h-40.1c-1.8 0-3.3-1.5-3.3-3.3 0-1.9 1.5-3.4 3.3-3.4h40.1c1.8 0 3.3 1.5 3.3 3.4 0 1.8-1.5 3.3-3.3 3.3z"></path><path id="Layer" class="s13" d="m297.6 385.5h-40.1c-1.8 0-3.3-1.5-3.3-3.4 0-1.8 1.5-3.3 3.3-3.3h40.1c1.8 0 3.3 1.5 3.3 3.3 0 1.9-1.5 3.4-3.3 3.4z"></path><path id="Layer" class="s13" d="m297.6 399.2h-40.1c-1.8 0-3.3-1.5-3.3-3.3 0-1.9 1.5-3.4 3.3-3.4h40.1c1.8 0 3.3 1.5 3.3 3.4 0 1.8-1.5 3.3-3.3 3.3z"></path><path id="Layer" class="s13" d="m297.6 412.9h-40.1c-1.8 0-3.3-1.5-3.3-3.3 0-1.8 1.5-3.4 3.3-3.4h40.1c1.8 0 3.3 1.6 3.3 3.4 0 1.8-1.5 3.3-3.3 3.3z"></path></g></g><g id="Layer"><path id="Layer" class="s13" d="m182 293h120.8c3.2 0 5.8 2.6 5.8 5.8v13.6h-132.4v-13.6c0-3.2 2.7-5.8 5.8-5.8z"></path><path id="Layer" class="s12" d="m192.8 300.8h76c1.3 0 2.4 0.8 2.6 2.1 0.2 1.6-1 2.9-2.5 2.9h-76.1c-1.4 0-2.6-1.1-2.6-2.6 0-1.3 1.2-2.4 2.6-2.4z"></path><path id="Layer" class="s14" d="m295 301.5c0-0.5 0.6-0.9 1-0.6l1.7 0.9 1.6 1c0.4 0.2 0.4 1 0 1.2l-1.6 1-1.7 0.9c-0.5 0.3-1-0.1-1-0.6v-1.9z"></path><path id="Layer" class="s14" d="m286.5 303.4v1.9c0 0.5-0.5 0.9-1.1 0.6l-1.6-0.9-1.6-1c-0.4-0.2-0.4-1 0-1.2l1.6-1 1.6-0.9c0.5-0.3 1.1 0.1 1.1 0.6z"></path></g></g><path id="Layer" class="s28" d="m295.5 428c1.4 3.9 2.1 7 2.1 7 2.4 8.3 3.6 28.3 5.9 44.3h-13.6c-4.4-12.6-9.4-30.1-11.1-40.1-3.5-21.7-7.3-84.5-7.3-84.5 8.2-5.4 14.4-1.7 14.4-1.7l8.6 67.4z"></path><path id="Layer" class="s28" d="m190.8 420.4l5.6-64.6c0 0 9.3 0 17.5-1.1 0 0-3.8 62.8-7.3 84.5-1.7 10-6.7 27.5-11.1 40.1h-13.6c2.3-16 3.5-36 6-44.3 0 0 0.6-3.1 2-7z"></path><path id="Layer" class="s29" d="m240.5 272.4c0 0-0.7-16.8 9.5-19.9 15.7-5 20.2 3.2 22.7 8.7 3.1 6.9 1.8 20.5-7.7 21.8-14.2 2-23.6-5.9-24.5-10.6z"></path><path id="Layer" class="s29" d="m230.3 328.3c-8.3 0-15.4-5.7-17-13.8-1.2-5.8-2.4-10.9-2.4-13.9v-0.1c-0.1-0.8-0.1-1.8-0.1-2.7-0.1-13.2 8-37.3 36.7-33.4 0 0 23.7 2.7 26.4 25.9 0 0 1 10.7 1.8 18.4 0 0.1 0 0.2 0 0.4 1.1 10.3-7 19.1-17.3 19.1z"></path><g id="Layer"><path id="Layer" class="s30" d="m283.8 369.9c-0.2 1.8-0.5 3.7-0.8 5.7-0.8 5.2-1.9 11.1-3.1 17.5-0.3 2-0.7 3.9-1.1 5.9-1 5.5-2.3 11.5-3.7 17.6-0.5 2-1 3.9-1.5 6-0.9 3.9-2 8-3.1 12.1 0.1 1.6 0.3 3.3 0.6 5.3 0.2 1.7 0.5 3.7 0.8 5.6 0.6 2.9 1.1 6 1.9 9.2 0.5 2.4 1 4.9 1.6 7.4q0.6 2.7 1.3 5.5c0.8 3.8 1.8 7.8 2.8 11.7h-75l2.6-11.6 1.2-5.4 1.8-7.9 2-8.7 1.2-5.4 0.6-2.8-3.1-14.7-1.3-5.8-3.9-17.8-1.3-5.9-3.9-17.9-1.3-5.9-2.9-13.6 7.6-2.7 11.3-4 0.2-0.1 6.4-2.1 1-0.4 8.6-2.6c0 0 4.9 2.3 22-1.3 0 0 3.8 0.7 8.8 1.9 0.5 0.1 1.1 0.2 1.7 0.4 3.8 1 8.1 2.1 12.1 3.5 3.7 1.3 7.1 2.7 9.2 4.2 0.2 0.1 0.3 0.2 0.6 0.4 0 0-0.4 4.1-1.3 11.5 0 1.4-0.3 3.2-0.6 5.2z"></path><path id="Layer" class="s28" d="m222.8 346.7l8.8-2.9c0 0 3.3 2.2 20.4-1.4 0 0 5.3 1.1 10.3 2.3-2.9 9.9-9.7 26.3-22.7 24.9-10.7-1.2-15.9-11.9-17.8-22.6z"></path><path id="Layer" class="s31" d="m268.8 359.3c-1.9 0-3.4-1.5-3.4-3.4 0-1.8 1.5-3.3 3.4-3.3 1.8 0 3.3 1.5 3.3 3.3 0 1.9-1.5 3.4-3.3 3.4z"></path><path id="Layer" class="s31" d="m275.5 375.5c-1.9 0-3.4-1.5-3.4-3.3 0-1.9 1.5-3.4 3.4-3.4 1.8 0 3.3 1.5 3.3 3.4 0 1.8-1.5 3.3-3.3 3.3z"></path><path id="Layer" class="s31" d="m254.2 383.2c-1.9 0-3.4-1.5-3.4-3.4 0-1.8 1.5-3.3 3.4-3.3 1.8 0 3.3 1.5 3.3 3.3 0 1.9-1.5 3.4-3.3 3.4z"></path><path id="Layer" class="s31" d="m270 387.1c1.7 0.6 2.5 2.6 1.8 4.3-0.6 1.7-2.6 2.5-4.3 1.9-1.8-0.7-2.5-2.6-1.9-4.4 0.7-1.7 2.6-2.5 4.4-1.8z"></path><path id="Layer" class="s31" d="m240.1 398.3c-1.8 0-3.3-1.5-3.3-3.3 0-1.9 1.5-3.4 3.3-3.4 1.9 0 3.4 1.5 3.4 3.4 0 1.8-1.5 3.3-3.4 3.3z"></path><path id="Layer" class="s31" d="m218.9 405.3c-1.9 0-3.4-1.5-3.4-3.4 0-1.8 1.5-3.3 3.4-3.3 1.9 0 3.4 1.5 3.4 3.3 0 1.9-1.5 3.4-3.4 3.4z"></path><path id="Layer" class="s31" d="m214.7 362.5c-1.9 0-3.4-1.5-3.4-3.3 0-1.9 1.5-3.4 3.4-3.4 1.8 0 3.3 1.5 3.3 3.4 0 1.8-1.5 3.3-3.3 3.3z"></path><path id="Layer" class="s31" d="m238.8 419.7c-1.8 0-3.3-1.5-3.3-3.4 0-1.9 1.5-3.4 3.3-3.4 1.9 0 3.4 1.5 3.4 3.4 0 1.9-1.5 3.4-3.4 3.4z"></path><path id="Layer" class="s31" d="m259.4 429.9c-1.9 0-3.4-1.5-3.4-3.3 0-1.9 1.5-3.4 3.4-3.4 1.8 0 3.3 1.5 3.3 3.4 0 1.8-1.5 3.3-3.3 3.3z"></path><path id="Layer" class="s31" d="m261.7 411.2c-1.8 0-3.3-1.5-3.3-3.3 0-1.9 1.5-3.4 3.3-3.4 1.9 0 3.4 1.5 3.4 3.4 0 1.8-1.5 3.3-3.4 3.3z"></path><path id="Layer" class="s31" d="m229 384.1c-1.9 0-3.4-1.5-3.4-3.4 0-1.8 1.5-3.3 3.4-3.3 1.8 0 3.3 1.5 3.3 3.3 0 1.9-1.5 3.4-3.3 3.4z"></path><path id="Layer" class="s31" d="m210.6 379.8c-1.9 0-3.4-1.5-3.4-3.3 0-1.9 1.5-3.4 3.4-3.4 1.8 0 3.3 1.5 3.3 3.4 0 1.8-1.5 3.3-3.3 3.3z"></path><path id="Layer" class="s31" d="m222.3 425.2c-1.9 0-3.4-1.5-3.4-3.4 0-1.8 1.5-3.3 3.4-3.3 1.8 0 3.3 1.5 3.3 3.3 0 1.9-1.5 3.4-3.3 3.4z"></path><path id="Layer" class="s31" d="m221.4 451.5c-1.9 0-3.4-1.5-3.4-3.4 0-1.8 1.5-3.3 3.4-3.3 1.8 0 3.3 1.5 3.3 3.3 0 1.9-1.5 3.4-3.3 3.4z"></path><path id="Layer" class="s31" d="m239.2 435.3c1.8 0.7 2.5 2.6 1.9 4.4-0.7 1.7-2.6 2.5-4.3 1.8-1.8-0.6-2.5-2.6-1.9-4.3 0.8-1.7 2.7-2.6 4.3-1.9z"></path><path id="Layer" class="s31" d="m262 445.1c1.7 0.6 2.5 2.6 1.8 4.3-0.6 1.7-2.6 2.5-4.3 1.8-1.8-0.6-2.5-2.5-1.9-4.3 0.7-1.7 2.6-2.6 4.4-1.8z"></path></g><g id="Layer"><path id="Layer" class="s6" d="m204.5 479.3l0.3-1.5 2.3-10.1 0.9-3.7 0.4-1.7 0.2-0.9 1.6-7c25.1 7.5 51.8 3 63.6 0.3 0.5 2.4 1 4.9 1.6 7.4 0.1 0.5 0.2 1 0.4 1.6q0.3 1.3 0.7 2.6c0.1 0.4 0.2 0.9 0.3 1.2 0.9 3.8 1.8 7.8 2.8 11.7z"></path></g><g id="Layer"><g id="Layer"><g id="Layer"><g id="Layer"><path id="Layer" class="s28" d="m222.1 315.1c-7.3 3.1-11.6-9.5-8.6-13.8 3-4.3 7.1 0.9 7.1 0.9z"></path><g id="Layer"><path id="Layer" class="s28" d="m220.5 311.3c-0.2 0-0.5-0.3-0.6-0.5-1.2-3.9-5.4-5.5-5.4-5.5-0.4-0.1-0.5-0.4-0.4-0.8 0.2-0.3 0.5-0.4 0.9-0.3 0.2 0.1 4.9 1.9 6.3 6.3 0.1 0.3-0.1 0.6-0.4 0.8-0.3 0-0.3 0-0.4 0z"></path></g><g id="Layer"><path id="Layer" class="s28" d="m216.2 309.3c-0.1 0-0.2 0-0.3-0.1-0.4-0.2-0.5-0.5-0.2-0.9 0 0 0.7-1.1 2.3-1.8 0.4-0.1 0.7 0 0.9 0.3 0.2 0.3 0 0.7-0.3 0.8-1.2 0.5-1.9 1.3-1.9 1.4-0.1 0.2-0.3 0.3-0.5 0.3z"></path></g></g></g><path id="Layer" class="s28" d="m252.1 328.7v15.4c0 0-7.2 5.6-12.9 6.1-5.6 0.5-7.5-6.2-7.5-6.2v-14.4z"></path><path id="Layer" class="s32" d="m252.1 330.2v6.2c-3.8 4.2-10.5 5.6-20.4 4.2v-9.4z"></path><path id="Layer" class="s28" d="m217.6 293.8c0.1-4.9 2.8-9.6 7-12.1 11.5-6.8 23.6-4.2 31.6-1.1 5.5 2.2 9.1 7.8 8.8 14-0.1 2.2-0.2 4.6-0.4 7-0.4 3.6-1.7 7.2-2.2 10.3-0.2 1.4 0.3 2.7 0 3.8-2.8 10-10 23.7-27.4 19.8-8.1-1.9-14.5-12.8-16.2-22.8q-0.3-2.3-0.7-4.6c-0.6-5.3-0.7-10.4-0.5-14.3z"></path><path id="Layer" class="s29" d="m216.6 292c0.1-5.2 3-9.9 7.4-12.4 12.1-7 24.9-4.4 33.3-1.1 5.9 2.2 9.6 8 9.3 14.2-0.1 2.2-0.2 4.7-0.4 7.2-0.7 0.4-2.8 1.5-3.8 2.2-0.9 2.8-0.9 7.6-1.7 10.7-1.6 5.3 1.2 11.8 1.3 11.9-3.7-2.2-5.8-11.6-4.1-17.2 1.6-5.7-0.7-9.3-0.7-9.3 0 0 0 0 0.1 0-1.2-0.9-2.9-1.8-5.3-2.7-8.1-3.2-15.9-7.8-15.9-7.8 0 0-3-1.9-4.2-3.9 0 0-1.9 4.8-7 7.2-6.9 3.2-4.7 11.3-7 15.3-0.1 0.3-0.3 0.3-0.4 0.2-0.8-5.4-0.8-10.5-0.9-14.5z"></path></g><g id="Layer"><g id="Layer"><path id="Layer" class="s28" d="m262.5 302.2c0 0 4.8-5.8 7.6-1.7 2.8 4.2-1.3 16.9-8.2 14z"></path><g id="Layer"><path id="Layer" class="s28" d="m263.3 310.2c-0.4-0.1-0.6-0.5-0.5-0.8 1.2-4.3 5.5-5.9 5.8-6 0.3-0.2 0.6 0 0.7 0.3 0.1 0.3 0 0.6-0.3 0.7 0 0-3.9 1.5-5 5.3 0 0.4-0.3 0.5-0.5 0.5 0 0-0.1 0-0.2 0z"></path></g><g id="Layer"><g id="Layer"><path id="Layer" class="s28" d="m267 308.1c0 0-0.5-0.7-1.6-1.3-0.3-0.1-0.4-0.4-0.3-0.7 0.1-0.4 0.4-0.5 0.8-0.4 1.4 0.7 2.1 1.8 2.1 1.8 0.1 0.2 0 0.5-0.2 0.7-0.1 0.1-0.2 0.1-0.3 0.1-0.2 0-0.3-0.1-0.5-0.2z"></path></g></g></g></g></g></g></g><path id="Layer" class="s33" d="m95.4 499.3l661.9-0.2"></path></g></svg>